<?xml version="1.0" encoding="utf-8"?>
<!-- Generator: Adobe Illustrator 25.2.3, SVG Export Plug-In . SVG Version: 6.00 Build 0)  -->
<svg version="1.1" id="Layer_1" xmlns="http://www.w3.org/2000/svg" xmlns:xlink="http://www.w3.org/1999/xlink" x="0px" y="0px"
	 viewBox="0 0 1300 67.4" style="enable-background:new 0 0 1300 67.4;" xml:space="preserve">
<style type="text/css">
	.st0{display:none;}
	.st1{display:inline;fill:#00D1E8;}
	.st2{fill:#FFFFFF;}
	.st3{opacity:0.2;fill:#C8C8C8;enable-background:new    ;}
	.st4{display:none;opacity:0.2;fill:#C8C8C8;enable-background:new    ;}
	.st5{fill:#E82133;}
	.st6{fill:#C0C125;}
	.st7{fill:#3944C6;}
	.st8{fill:#480E56;}
</style>
<g id="Layer_6" class="st0">
	<rect y="-112.6" class="st1" width="1300" height="300"/>
</g>
<g id="Layer_1_1_">
	<rect x="1299" y="39.3" class="st2" width="1" height="7"/>
</g>
<g id="Layer_2_1_">
	<polygon class="st2" points="99.3,42.3 99.3,39.3 98.3,39.3 98.3,42.3 85.5,42.3 85.5,39.3 84.4,39.3 84.4,42.3 71.6,42.3 
		71.6,39.3 70.6,39.3 70.6,42.3 57.7,42.3 57.7,39.3 56.7,39.3 56.7,42.3 43.8,42.3 43.8,39.3 42.8,39.3 42.8,42.3 30,42.3 30,39.3 
		28.9,39.3 28.9,42.3 15.6,42.3 15.6,36.1 13.8,36.1 13.8,42.8 15.1,42.8 15.1,51.9 16.1,51.9 16.1,43.3 28.9,43.3 28.9,46.3 
		30,46.3 30,43.3 42.8,43.3 42.8,46.3 43.8,46.3 43.8,43.3 56.7,43.3 56.7,46.3 57.7,46.3 57.7,43.3 70.6,43.3 70.6,46.3 71.6,46.3 
		71.6,43.3 84.4,43.3 84.4,46.3 85.5,46.3 85.5,43.3 98.3,43.3 98.3,46.3 99.3,46.3 99.3,43.3 112.2,43.3 112.2,51.9 113.2,51.9 
		113.2,42.3 	"/>
	<polygon class="st2" points="198.2,42.3 198.2,39.3 197.2,39.3 197.2,42.3 184.4,42.3 184.4,39.3 183.3,39.3 183.3,42.3 
		170.5,42.3 170.5,39.3 169.4,39.3 169.4,42.3 156.6,42.3 156.6,39.3 155.6,39.3 155.6,42.3 142.7,42.3 142.7,39.3 141.7,39.3 
		141.7,42.3 128.9,42.3 128.9,39.3 127.8,39.3 127.8,42.3 114.5,42.3 114.5,36.1 112.7,36.1 112.7,42.8 113.9,42.8 113.9,51.9 
		115,51.9 115,43.3 127.8,43.3 127.8,46.3 128.9,46.3 128.9,43.3 141.7,43.3 141.7,46.3 142.7,46.3 142.7,43.3 155.6,43.3 
		155.6,46.3 156.6,46.3 156.6,43.3 169.4,43.3 169.4,46.3 170.5,46.3 170.5,43.3 183.3,43.3 183.3,46.3 184.4,46.3 184.4,43.3 
		197.2,43.3 197.2,46.3 198.2,46.3 198.2,43.3 211.1,43.3 211.1,51.9 212.1,51.9 212.1,42.3 	"/>
	<polygon class="st2" points="297.1,42.3 297.1,39.3 296.1,39.3 296.1,42.3 283.3,42.3 283.3,39.3 282.2,39.3 282.2,42.3 
		269.4,42.3 269.4,39.3 268.4,39.3 268.4,42.3 255.5,42.3 255.5,39.3 254.5,39.3 254.5,42.3 241.6,42.3 241.6,39.3 240.6,39.3 
		240.6,42.3 227.8,42.3 227.8,39.3 226.7,39.3 226.7,42.3 213.4,42.3 213.4,36.1 211.6,36.1 211.6,42.8 212.9,42.8 212.9,51.9 
		213.9,51.9 213.9,43.3 226.7,43.3 226.7,46.3 227.8,46.3 227.8,43.3 240.6,43.3 240.6,46.3 241.6,46.3 241.6,43.3 254.5,43.3 
		254.5,46.3 255.5,46.3 255.5,43.3 268.4,43.3 268.4,46.3 269.4,46.3 269.4,43.3 282.2,43.3 282.2,46.3 283.3,46.3 283.3,43.3 
		296.1,43.3 296.1,46.3 297.1,46.3 297.1,43.3 310,43.3 310,51.9 311,51.9 311,42.3 	"/>
	<polygon class="st2" points="494.9,42.3 494.9,39.3 493.9,39.3 493.9,42.3 481.1,42.3 481.1,39.3 480,39.3 480,42.3 467.2,42.3 
		467.2,39.3 466.1,39.3 466.1,42.3 453.3,42.3 453.3,39.3 452.3,39.3 452.3,42.3 439.4,42.3 439.4,39.3 438.4,39.3 438.4,42.3 
		425.6,42.3 425.6,39.3 424.5,39.3 424.5,42.3 411.2,42.3 411.2,36.1 409.4,36.1 409.4,42.8 410.6,42.8 410.6,51.9 411.7,51.9 
		411.7,43.3 424.5,43.3 424.5,46.3 425.6,46.3 425.6,43.3 438.4,43.3 438.4,46.3 439.4,46.3 439.4,43.3 452.3,43.3 452.3,46.3 
		453.3,46.3 453.3,43.3 466.1,43.3 466.1,46.3 467.2,46.3 467.2,43.3 480,43.3 480,46.3 481.1,46.3 481.1,43.3 493.9,43.3 
		493.9,46.3 494.9,46.3 494.9,43.3 507.8,43.3 507.8,51.9 508.8,51.9 508.8,42.3 	"/>
	<polygon class="st2" points="593.8,42.3 593.8,39.3 592.8,39.3 592.8,42.3 580,42.3 580,39.3 578.9,39.3 578.9,42.3 566.1,42.3 
		566.1,39.3 565,39.3 565,42.3 552.2,42.3 552.2,39.3 551.2,39.3 551.2,42.3 538.3,42.3 538.3,39.3 537.3,39.3 537.3,42.3 
		524.5,42.3 524.5,39.3 523.4,39.3 523.4,42.3 510.1,42.3 510.1,36.1 508.3,36.1 508.3,42.8 509.5,42.8 509.5,51.9 510.6,51.9 
		510.6,43.3 523.4,43.3 523.4,46.3 524.5,46.3 524.5,43.3 537.3,43.3 537.3,46.3 538.3,46.3 538.3,43.3 551.2,43.3 551.2,46.3 
		552.2,46.3 552.2,43.3 565,43.3 565,46.3 566.1,46.3 566.1,43.3 578.9,43.3 578.9,46.3 580,46.3 580,43.3 592.8,43.3 592.8,46.3 
		593.8,46.3 593.8,43.3 606.7,43.3 606.7,51.9 607.7,51.9 607.7,42.3 	"/>
	<polygon class="st2" points="692.7,42.3 692.7,39.3 691.7,39.3 691.7,42.3 678.9,42.3 678.9,39.3 677.8,39.3 677.8,42.3 665,42.3 
		665,39.3 664,39.3 664,42.3 651.1,42.3 651.1,39.3 650.1,39.3 650.1,42.3 637.2,42.3 637.2,39.3 636.2,39.3 636.2,42.3 623.4,42.3 
		623.4,39.3 622.3,39.3 622.3,42.3 609,42.3 609,36.1 607.2,36.1 607.2,42.8 608.5,42.8 608.5,51.9 609.5,51.9 609.5,43.3 
		622.3,43.3 622.3,46.3 623.4,46.3 623.4,43.3 636.2,43.3 636.2,46.3 637.2,46.3 637.2,43.3 650.1,43.3 650.1,46.3 651.1,46.3 
		651.1,43.3 664,43.3 664,46.3 665,46.3 665,43.3 677.8,43.3 677.8,46.3 678.9,46.3 678.9,43.3 691.7,43.3 691.7,46.3 692.7,46.3 
		692.7,43.3 705.6,43.3 705.6,51.9 706.6,51.9 706.6,42.3 	"/>
	<polygon class="st2" points="890.5,42.3 890.5,39.3 889.5,39.3 889.5,42.3 876.7,42.3 876.7,39.3 875.6,39.3 875.6,42.3 
		862.8,42.3 862.8,39.3 861.7,39.3 861.7,42.3 848.9,42.3 848.9,39.3 847.9,39.3 847.9,42.3 835,42.3 835,39.3 834,39.3 834,42.3 
		821.2,42.3 821.2,39.3 820.1,39.3 820.1,42.3 806.8,42.3 806.8,36.1 805,36.1 805,42.8 806.2,42.8 806.2,51.9 807.3,51.9 
		807.3,43.3 820.1,43.3 820.1,46.3 821.2,46.3 821.2,43.3 834,43.3 834,46.3 835,46.3 835,43.3 847.9,43.3 847.9,46.3 848.9,46.3 
		848.9,43.3 861.7,43.3 861.7,46.3 862.8,46.3 862.8,43.3 875.6,43.3 875.6,46.3 876.7,46.3 876.7,43.3 889.5,43.3 889.5,46.3 
		890.5,46.3 890.5,43.3 903.4,43.3 903.4,51.9 904.4,51.9 904.4,42.3 	"/>
	<polygon class="st2" points="792,42.3 792,23.7 790.2,23.7 790.2,42.3 777.8,42.3 777.8,39.3 776.7,39.3 776.7,42.3 763.9,42.3 
		763.9,39.3 762.8,39.3 762.8,42.3 750,42.3 750,39.3 749,39.3 749,42.3 736.1,42.3 736.1,39.3 735.1,39.3 735.1,42.3 722.2,42.3 
		722.2,39.3 721.2,39.3 721.2,42.3 707.9,42.3 707.9,36.1 706.1,36.1 706.1,42.8 707.3,42.8 707.3,51.9 708.4,51.9 708.4,43.3 
		721.2,43.3 721.2,46.3 722.2,46.3 722.2,43.3 735.1,43.3 735.1,46.3 736.1,46.3 736.1,43.3 749,43.3 749,46.3 750,46.3 750,43.3 
		762.8,43.3 762.8,46.3 763.9,46.3 763.9,43.3 776.7,43.3 776.7,46.3 777.8,46.3 777.8,43.3 790.6,43.3 790.6,46.3 791.6,46.3 
		791.6,43.3 804.5,43.3 804.5,51.9 805.5,51.9 805.5,42.3 	"/>
	<polygon class="st2" points="396,42.3 396,39.3 395,39.3 395,42.3 382.2,42.3 382.2,39.3 381.1,39.3 381.1,42.3 368.3,42.3 
		368.3,39.3 367.2,39.3 367.2,42.3 355.3,42.3 355.3,23.7 353.5,23.7 353.5,39.3 353.4,39.3 353.4,42.3 340.5,42.3 340.5,39.3 
		339.5,39.3 339.5,42.3 326.7,42.3 326.7,39.3 325.6,39.3 325.6,42.3 312.3,42.3 312.3,36.1 310.5,36.1 310.5,42.8 311.8,42.8 
		311.8,51.9 312.8,51.9 312.8,43.3 325.6,43.3 325.6,46.3 326.7,46.3 326.7,43.3 339.5,43.3 339.5,46.3 340.5,46.3 340.5,43.3 
		353.4,43.3 353.4,46.3 354.4,46.3 354.4,43.3 367.2,43.3 367.2,46.3 368.3,46.3 368.3,43.3 381.1,43.3 381.1,46.3 382.2,46.3 
		382.2,43.3 395,43.3 395,46.3 396,46.3 396,43.3 408.9,43.3 408.9,51.9 409.9,51.9 409.9,42.3 	"/>
	<polygon class="st2" points="989.4,42.3 989.4,39.3 988.4,39.3 988.4,42.3 975.5,42.3 975.5,39.3 974.5,39.3 974.5,42.3 
		961.7,42.3 961.7,39.3 960.6,39.3 960.6,42.3 947.8,42.3 947.8,39.3 946.8,39.3 946.8,42.3 933.9,42.3 933.9,39.3 932.9,39.3 
		932.9,42.3 920,42.3 920,39.3 919,39.3 919,42.3 905.7,42.3 905.7,36.1 903.9,36.1 903.9,42.8 905.1,42.8 905.1,51.9 906.2,51.9 
		906.2,43.3 919,43.3 919,46.3 920,46.3 920,43.3 932.9,43.3 932.9,46.3 933.9,46.3 933.9,43.3 946.8,43.3 946.8,46.3 947.8,46.3 
		947.8,43.3 960.6,43.3 960.6,46.3 961.7,46.3 961.7,43.3 974.5,43.3 974.5,46.3 975.5,46.3 975.5,43.3 988.4,43.3 988.4,46.3 
		989.4,46.3 989.4,43.3 1002.3,43.3 1002.3,51.9 1003.3,51.9 1003.3,42.3 	"/>
	<polygon class="st2" points="1088.3,42.3 1088.3,39.3 1087.3,39.3 1087.3,42.3 1074.4,42.3 1074.4,39.3 1073.4,39.3 1073.4,42.3 
		1060.6,42.3 1060.6,39.3 1059.5,39.3 1059.5,42.3 1046.7,42.3 1046.7,39.3 1045.7,39.3 1045.7,42.3 1032.8,42.3 1032.8,39.3 
		1031.8,39.3 1031.8,42.3 1019,42.3 1019,39.3 1017.9,39.3 1017.9,42.3 1004.6,42.3 1004.6,36.1 1002.8,36.1 1002.8,42.8 1004,42.8 
		1004,51.9 1005.1,51.9 1005.1,43.3 1017.9,43.3 1017.9,46.3 1019,46.3 1019,43.3 1031.8,43.3 1031.8,46.3 1032.8,46.3 1032.8,43.3 
		1045.7,43.3 1045.7,46.3 1046.7,46.3 1046.7,43.3 1059.5,43.3 1059.5,46.3 1060.6,46.3 1060.6,43.3 1073.4,43.3 1073.4,46.3 
		1074.4,46.3 1074.4,43.3 1087.3,43.3 1087.3,46.3 1088.3,46.3 1088.3,43.3 1101.2,43.3 1101.2,51.9 1102.2,51.9 1102.2,42.3 	"/>
	<polygon class="st2" points="1187.2,42.3 1187.2,39.3 1186.2,39.3 1186.2,42.3 1173.3,42.3 1173.3,39.3 1172.3,39.3 1172.3,42.3 
		1159.5,42.3 1159.5,39.3 1158.4,39.3 1158.4,42.3 1145.6,42.3 1145.6,39.3 1144.6,39.3 1144.6,42.3 1131.7,42.3 1131.7,39.3 
		1130.7,39.3 1130.7,42.3 1117.8,42.3 1117.8,39.3 1116.8,39.3 1116.8,42.3 1103.5,42.3 1103.5,36.1 1101.7,36.1 1101.7,42.8 
		1102.9,42.8 1102.9,51.9 1104,51.9 1104,43.3 1116.8,43.3 1116.8,46.3 1117.8,46.3 1117.8,43.3 1130.7,43.3 1130.7,46.3 
		1131.7,46.3 1131.7,43.3 1144.6,43.3 1144.6,46.3 1145.6,46.3 1145.6,43.3 1158.4,43.3 1158.4,46.3 1159.5,46.3 1159.5,43.3 
		1172.3,43.3 1172.3,46.3 1173.3,46.3 1173.3,43.3 1186.2,43.3 1186.2,46.3 1187.2,46.3 1187.2,43.3 1200.1,43.3 1200.1,51.9 
		1201.1,51.9 1201.1,42.3 	"/>
	<polygon class="st2" points="1286.1,42.3 1286.1,39.3 1285.1,39.3 1285.1,42.3 1272.2,42.3 1272.2,39.3 1271.2,39.3 1271.2,42.3 
		1258.4,42.3 1258.4,39.3 1257.3,39.3 1257.3,42.3 1244.5,42.3 1244.5,39.3 1243.5,39.3 1243.5,42.3 1231,42.3 1231,23.7 
		1229.2,23.7 1229.2,42.3 1216.8,42.3 1216.8,39.3 1215.7,39.3 1215.7,42.3 1202.3,42.3 1202.3,36.1 1200.6,36.1 1200.6,42.8 
		1201.8,42.8 1201.8,51.9 1202.9,51.9 1202.9,43.3 1215.7,43.3 1215.7,46.3 1216.8,46.3 1216.8,43.3 1229.6,43.3 1229.6,46.3 
		1230.6,46.3 1230.6,43.3 1243.5,43.3 1243.5,46.3 1244.5,46.3 1244.5,43.3 1257.3,43.3 1257.3,46.3 1258.4,46.3 1258.4,43.3 
		1271.2,43.3 1271.2,46.3 1272.2,46.3 1272.2,43.3 1285.1,43.3 1285.1,46.3 1286.1,46.3 1286.1,43.3 1299,43.3 1299,51.9 1300,51.9 
		1300,42.3 	"/>
</g>
<g id="Layer_3">
	<rect id="_x30_6152020_x5F_AM" x="129.4" y="43.9" class="st3" width="11.7" height="11.8"/>
	<rect id="_x30_6142020_x5F_AM" x="115.6" y="43.9" class="st3" width="11.7" height="11.8"/>
	<rect id="_x30_6132020_x5F_AM" x="99.9" y="43.9" class="st3" width="11.7" height="11.8"/>
	<rect id="_x30_6132020_x5F_PM" x="99.9" y="55.6" class="st3" width="11.7" height="11.8"/>
	<rect id="_x30_6122020_x5F_AM" x="86" y="43.9" class="st3" width="11.7" height="11.8"/>
	<rect id="_x30_6122020_x5F_PM" x="86" y="55.6" class="st3" width="11.7" height="11.8"/>
	<rect id="_x30_6112020_x5F_AM" x="72.1" y="43.9" class="st3" width="11.7" height="11.8"/>
	<rect id="_x30_6112020_x5F_PM" x="72.1" y="55.6" class="st3" width="11.7" height="11.8"/>
	<rect id="_x30_6102020_x5F_AM" x="58.2" y="43.9" class="st3" width="11.7" height="11.8"/>
	<rect id="_x30_6102020_x5F_PM" x="58.2" y="55.6" class="st3" width="11.7" height="11.8"/>
	<rect id="_x30_6092020_x5F_AM" x="44.4" y="43.9" class="st3" width="11.7" height="11.8"/>
	<rect id="_x30_6092020_x5F_PM" x="44.4" y="55.6" class="st3" width="11.7" height="11.8"/>
	<rect id="_x30_6082020_x5F_AM" x="30.5" y="43.9" class="st3" width="11.7" height="11.8"/>
	<rect id="_x30_6082020_x5F_PM" x="30.5" y="55.6" class="st3" width="11.7" height="11.8"/>
	<rect id="_x30_6072020_x5F_AM" x="16.6" y="43.9" class="st3" width="11.7" height="11.8"/>
	<rect id="_x30_6072020_x5F_PM" x="16.6" y="55.6" class="st3" width="11.7" height="11.8"/>
	<rect id="_x30_6162020_x5F_AM" x="143.3" y="43.9" class="st3" width="11.7" height="11.8"/>
	<rect id="_x30_6172020_x5F_AM" x="157.2" y="43.9" class="st3" width="11.7" height="11.8"/>
	<rect id="_x30_6182020_x5F_AM" x="171.1" y="43.9" class="st3" width="11.7" height="11.8"/>
	<rect id="_x30_6192020_x5F_AM" x="184.9" y="43.9" class="st3" width="11.7" height="11.8"/>
	<rect id="_x30_6202020_x5F_AM" x="198.8" y="43.9" class="st3" width="11.7" height="11.8"/>
	<rect id="_x30_6152020_x5F_PM" x="129.4" y="55.6" class="st3" width="11.7" height="11.8"/>
	<rect id="_x30_6142020_x5F_PM" x="115.6" y="55.6" class="st3" width="11.7" height="11.8"/>
	<rect id="_x30_6162020_x5F_PM" x="143.3" y="55.6" class="st3" width="11.7" height="11.8"/>
	<rect id="_x30_6172020_x5F_PM" x="157.2" y="55.6" class="st3" width="11.7" height="11.8"/>
	<rect id="_x30_6182020_x5F_PM" x="171.1" y="55.6" class="st3" width="11.7" height="11.8"/>
	<rect id="_x30_6192020_x5F_PM" x="184.9" y="55.6" class="st3" width="11.7" height="11.8"/>
	<rect id="_x30_6202020_x5F_PM" x="198.8" y="55.6" class="st3" width="11.7" height="11.8"/>
	<rect id="_x30_6212020_x5F_AM" x="214.4" y="43.9" class="st3" width="11.7" height="11.8"/>
	<rect id="_x30_6222020_x5F_AM" x="228.3" y="43.9" class="st3" width="11.7" height="11.8"/>
	<rect id="_x30_6232020_x5F_AM" x="242.2" y="43.9" class="st3" width="11.7" height="11.8"/>
	<rect id="_x30_6242020_x5F_AM" x="256.1" y="43.9" class="st3" width="11.7" height="11.8"/>
	<rect id="_x30_6252020_x5F_AM" x="270" y="43.9" class="st3" width="11.7" height="11.8"/>
	<rect id="_x30_6262020_x5F_AM" x="283.8" y="43.9" class="st3" width="11.7" height="11.8"/>
	<rect id="_x30_6272020_x5F_AM" x="297.7" y="43.9" class="st3" width="11.7" height="11.8"/>
	<rect id="_x30_6212020_x5F_PM" x="214.4" y="55.6" class="st3" width="11.7" height="11.8"/>
	<rect id="_x30_6222020_x5F_PM" x="228.3" y="55.6" class="st3" width="11.7" height="11.8"/>
	<rect id="_x30_6232020_x5F_PM" x="242.2" y="55.6" class="st3" width="11.7" height="11.8"/>
	<rect id="_x30_6242020_x5F_PM" x="256.1" y="55.6" class="st3" width="11.7" height="11.8"/>
	<rect id="_x30_6252020_x5F_PM" x="270" y="55.6" class="st3" width="11.7" height="11.8"/>
	<rect id="_x30_6262020_x5F_PM" x="283.8" y="55.6" class="st3" width="11.7" height="11.8"/>
	<rect id="_x30_6272020_x5F_PM" x="297.7" y="55.6" class="st3" width="11.7" height="11.8"/>
	<rect id="_x30_6282020_x5F_AM" x="313.3" y="43.9" class="st3" width="11.7" height="11.8"/>
	<rect id="_x30_6292020_x5F_AM" x="327.2" y="43.9" class="st3" width="11.7" height="11.8"/>
	<rect id="_x30_6302020_x5F_AM" x="341.1" y="43.9" class="st3" width="11.7" height="11.8"/>
	<rect id="_x30_7012020_x5F_AM" x="355" y="43.9" class="st3" width="11.7" height="11.8"/>
	<rect id="_x30_7022020_x5F_AM" x="368.9" y="43.9" class="st3" width="11.7" height="11.8"/>
	<rect id="_x30_7032020_x5F_AM" x="382.7" y="43.9" class="st3" width="11.7" height="11.8"/>
	<rect id="_x30_7042020_x5F_AM" x="396.6" y="43.9" class="st3" width="11.7" height="11.8"/>
	<rect id="_x30_6282020_x5F_PM" x="313.3" y="55.6" class="st3" width="11.7" height="11.8"/>
	<rect id="_x30_6292020_x5F_PM" x="327.2" y="55.6" class="st3" width="11.7" height="11.8"/>
	<rect id="_x30_6302020_x5F_PM" x="341.1" y="55.6" class="st3" width="11.7" height="11.8"/>
	<rect id="_x30_7012020_x5F_PM" x="355" y="55.6" class="st3" width="11.7" height="11.8"/>
	<rect id="_x30_7022020_x5F_PM" x="368.9" y="55.6" class="st3" width="11.7" height="11.8"/>
	<rect id="_x30_7032020_x5F_PM" x="382.7" y="55.6" class="st3" width="11.7" height="11.8"/>
	<rect id="_x30_7042020_x5F_PM" x="396.6" y="55.6" class="st3" width="11.7" height="11.8"/>
	<rect id="_x30_7132020_x5F_AM" x="525" y="43.9" class="st3" width="11.7" height="11.8"/>
	<rect id="_x30_7122020_x5F_AM" x="511.1" y="43.9" class="st3" width="11.7" height="11.8"/>
	<rect id="_x30_7112020_x5F_AM" x="495.5" y="43.9" class="st3" width="11.7" height="11.8"/>
	<rect id="_x30_7102020_x5F_AM" x="481.6" y="43.9" class="st3" width="11.7" height="11.8"/>
	<rect id="_x30_7092020_x5F_AM" x="467.7" y="43.9" class="st3" width="11.7" height="11.8"/>
	<rect id="_x30_7082020_x5F_AM" x="453.9" y="43.9" class="st3" width="11.7" height="11.8"/>
	<rect id="_x30_7072020_x5F_AM" x="440" y="43.9" class="st3" width="11.7" height="11.8"/>
	<rect id="_x30_7062020_x5F_AM" x="426.1" y="43.9" class="st3" width="11.7" height="11.8"/>
	<rect id="_x30_7052020_x5F_AM" x="412.2" y="43.9" class="st3" width="11.7" height="11.8"/>
	<rect id="_x30_7112020_x5F_PM" x="495.5" y="55.6" class="st3" width="11.7" height="11.8"/>
	<rect id="_x30_7102020_x5F_PM" x="481.6" y="55.6" class="st3" width="11.7" height="11.8"/>
	<rect id="_x30_7092020_x5F_PM" x="467.7" y="55.6" class="st3" width="11.7" height="11.8"/>
	<rect id="_x30_7082020_x5F_PM" x="453.9" y="55.6" class="st3" width="11.7" height="11.8"/>
	<rect id="_x30_7072020_x5F_PM" x="440" y="55.6" class="st3" width="11.7" height="11.8"/>
	<rect id="_x30_7062020_x5F_PM" x="426.1" y="55.6" class="st3" width="11.7" height="11.8"/>
	<rect id="_x30_7052020_x5F_PM" x="412.2" y="55.6" class="st3" width="11.7" height="11.8"/>
	<rect id="_x30_7142020_x5F_AM" x="538.9" y="43.9" class="st3" width="11.7" height="11.8"/>
	<rect id="_x30_7152020_x5F_AM" x="552.8" y="43.9" class="st3" width="11.7" height="11.8"/>
	<rect id="_x30_7162020_x5F_AM" x="566.6" y="43.9" class="st3" width="11.7" height="11.8"/>
	<rect id="_x30_7172020_x5F_AM" x="580.5" y="43.9" class="st3" width="11.7" height="11.8"/>
	<rect id="_x30_7182020_x5F_AM" x="594.4" y="43.9" class="st3" width="11.7" height="11.8"/>
	<rect id="_x30_7132020_x5F_PM" x="525" y="55.6" class="st3" width="11.7" height="11.8"/>
	<rect id="_x30_7122020_x5F_PM" x="511.1" y="55.6" class="st3" width="11.7" height="11.8"/>
	<rect id="_x30_7142020_x5F_PM" x="538.9" y="55.6" class="st3" width="11.7" height="11.8"/>
	<rect id="_x30_7152020_x5F_PM" x="552.8" y="55.6" class="st3" width="11.7" height="11.8"/>
	<rect id="_x30_7162020_x5F_PM" x="566.6" y="55.6" class="st3" width="11.7" height="11.8"/>
	<rect id="_x30_7172020_x5F_PM" x="580.5" y="55.6" class="st3" width="11.7" height="11.8"/>
	<rect id="_x30_7182020_x5F_PM" x="594.4" y="55.6" class="st3" width="11.7" height="11.8"/>
	<rect id="_x30_7192020_x5F_AM" x="610" y="43.9" class="st3" width="11.7" height="11.8"/>
	<rect id="_x30_7202020_x5F_AM" x="623.9" y="43.9" class="st3" width="11.7" height="11.8"/>
	<rect id="_x30_7212020_x5F_AM" x="637.8" y="43.9" class="st3" width="11.7" height="11.8"/>
	<rect id="_x30_7222020_x5F_AM" x="651.7" y="43.9" class="st3" width="11.7" height="11.8"/>
	<rect id="_x30_7232020_x5F_AM" x="665.5" y="43.9" class="st3" width="11.7" height="11.8"/>
	<rect id="_x30_7242020_x5F_AM" x="679.4" y="43.9" class="st3" width="11.7" height="11.8"/>
	<rect id="_x30_7252020_x5F_AM" x="693.3" y="43.9" class="st3" width="11.7" height="11.8"/>
	<rect id="_x30_7192020_x5F_PM" x="610" y="55.6" class="st3" width="11.7" height="11.8"/>
	<rect id="_x30_7202020_x5F_PM" x="623.9" y="55.6" class="st3" width="11.7" height="11.8"/>
	<rect id="_x30_7212020_x5F_PM" x="637.8" y="55.6" class="st3" width="11.7" height="11.8"/>
	<rect id="_x30_7222020_x5F_PM" x="651.7" y="55.6" class="st3" width="11.7" height="11.8"/>
	<rect id="_x30_7232020_x5F_PM" x="665.5" y="55.6" class="st3" width="11.7" height="11.8"/>
	<rect id="_x30_7242020_x5F_PM" x="679.4" y="55.6" class="st3" width="11.7" height="11.8"/>
	<rect id="_x30_7252020_x5F_PM" x="693.3" y="55.6" class="st3" width="11.7" height="11.8"/>
	<rect id="_x30_7262020_x5F_AM" x="709" y="43.9" class="st3" width="11.7" height="11.8"/>
	<rect id="_x30_7272020_x5F_AM" x="722.8" y="43.9" class="st3" width="11.7" height="11.8"/>
	<rect id="_x30_7282020_x5F_AM" x="736.6" y="43.9" class="st3" width="11.7" height="11.8"/>
	<rect id="_x30_7292020_x5F_AM" x="750.5" y="43.9" class="st3" width="11.7" height="11.8"/>
	<rect id="_x30_7302020_x5F_AM" x="764.3" y="43.9" class="st3" width="11.7" height="11.8"/>
	<rect id="_x30_7312020_x5F_AM" x="778.1" y="43.9" class="st3" width="11.7" height="11.8"/>
	<rect id="_x30_7262020_x5F_PM" x="709" y="55.6" class="st3" width="11.7" height="11.8"/>
	<rect id="_x30_7272020_x5F_PM" x="722.8" y="55.6" class="st3" width="11.7" height="11.8"/>
	<rect id="_x30_7282020_x5F_PM" x="736.6" y="55.6" class="st3" width="11.7" height="11.8"/>
	<rect id="_x30_7292020_x5F_PM" x="750.5" y="55.6" class="st3" width="11.7" height="11.8"/>
	<rect id="_x30_7302020_x5F_PM" x="764.3" y="55.6" class="st3" width="11.7" height="11.8"/>
	<rect id="_x30_7312020_x5F_PM" x="778.1" y="55.6" class="st3" width="11.7" height="11.8"/>
	<rect id="_x30_8012020_x5F_AM" x="792.3" y="43.9" class="st3" width="11.7" height="11.8"/>
	<rect id="_x30_8102020_x5F_AM" x="920.6" y="43.9" class="st3" width="11.7" height="11.8"/>
	<rect id="_x30_8092020_x5F_AM" x="906.7" y="43.9" class="st3" width="11.7" height="11.8"/>
	<rect id="_x30_8082020_x5F_AM" x="891.1" y="43.9" class="st3" width="11.7" height="11.8"/>
	<rect id="_x30_8072020_x5F_AM" x="877.2" y="43.9" class="st3" width="11.7" height="11.8"/>
	<rect id="_x30_8062020_x5F_AM" x="863.3" y="43.9" class="st3" width="11.7" height="11.8"/>
	<rect id="_x30_8052020_x5F_AM" x="849.5" y="43.9" class="st3" width="11.7" height="11.8"/>
	<rect id="_x30_8042020_x5F_AM" x="835.6" y="43.9" class="st3" width="11.7" height="11.8"/>
	<rect id="_x30_8032020_x5F_AM" x="821.7" y="43.9" class="st3" width="11.7" height="11.8"/>
	<rect id="_x30_8022020_x5F_AM" x="807.8" y="43.9" class="st3" width="11.7" height="11.8"/>
	<rect id="_x30_8012020_x5F_PM" x="792.3" y="55.6" class="st3" width="11.7" height="11.8"/>
	<rect id="_x30_8082020_x5F_PM" x="891.1" y="55.6" class="st3" width="11.7" height="11.8"/>
	<rect id="_x30_8072020_x5F_PM" x="877.2" y="55.6" class="st3" width="11.7" height="11.8"/>
	<rect id="_x30_8062020_x5F_PM" x="863.3" y="55.6" class="st3" width="11.7" height="11.8"/>
	<rect id="_x30_8052020_x5F_PM" x="849.5" y="55.6" class="st3" width="11.7" height="11.8"/>
	<rect id="_x30_8042020_x5F_PM" x="835.6" y="55.6" class="st3" width="11.7" height="11.8"/>
	<rect id="_x30_8032020_x5F_PM" x="821.7" y="55.6" class="st3" width="11.7" height="11.8"/>
	<rect id="_x30_8022020_x5F_PM" x="807.8" y="55.6" class="st3" width="11.7" height="11.8"/>
	<rect id="_x30_8112020_x5F_AM" x="934.5" y="43.9" class="st3" width="11.7" height="11.8"/>
	<rect id="_x30_8122020_x5F_AM" x="948.4" y="43.9" class="st3" width="11.7" height="11.8"/>
	<rect id="_x30_8132020_x5F_AM" x="962.2" y="43.9" class="st3" width="11.7" height="11.8"/>
	<rect id="_x30_8142020_x5F_AM" x="976.1" y="43.9" class="st3" width="11.7" height="11.8"/>
	<rect id="_x30_8152020_x5F_AM" x="990" y="43.9" class="st3" width="11.7" height="11.8"/>
	<rect id="_x30_8102020_x5F_PM" x="920.6" y="55.6" class="st3" width="11.7" height="11.8"/>
	<rect id="_x30_8092020_x5F_PM" x="906.7" y="55.6" class="st3" width="11.7" height="11.8"/>
	<rect id="_x30_8112020_x5F_PM" x="934.5" y="55.6" class="st3" width="11.7" height="11.8"/>
	<rect id="_x30_8122020_x5F_PM" x="948.4" y="55.6" class="st3" width="11.7" height="11.8"/>
	<rect id="_x30_8132020_x5F_PM" x="962.2" y="55.6" class="st3" width="11.7" height="11.8"/>
	<rect id="_x30_8142020_x5F_PM" x="976.1" y="55.6" class="st3" width="11.7" height="11.8"/>
	<rect id="_x30_8152020_x5F_PM" x="990" y="55.6" class="st3" width="11.7" height="11.8"/>
	<rect id="_x30_8162020_x5F_AM" x="1005.6" y="43.9" class="st3" width="11.7" height="11.8"/>
	<rect id="_x30_8172020_x5F_AM" x="1019.5" y="43.9" class="st3" width="11.7" height="11.8"/>
	<rect id="_x30_8182020_x5F_AM" x="1033.4" y="43.9" class="st3" width="11.7" height="11.8"/>
	<rect id="_x30_8192020_x5F_AM" x="1047.3" y="43.9" class="st3" width="11.7" height="11.8"/>
	<rect id="_x30_8202020_x5F_AM" x="1061.1" y="43.9" class="st3" width="11.7" height="11.8"/>
	<rect id="_x30_8212020_x5F_AM" x="1075" y="43.9" class="st3" width="11.7" height="11.8"/>
	<rect id="_x30_8222020_x5F_AM" x="1088.9" y="43.9" class="st3" width="11.7" height="11.8"/>
	<rect id="_x30_8162020_x5F_PM" x="1005.6" y="55.6" class="st3" width="11.7" height="11.8"/>
	<rect id="_x30_8172020_x5F_PM" x="1019.5" y="55.6" class="st3" width="11.7" height="11.8"/>
	<rect id="_x30_8182020_x5F_PM" x="1033.4" y="55.6" class="st3" width="11.7" height="11.8"/>
	<rect id="_x30_8192020_x5F_PM" x="1047.3" y="55.6" class="st3" width="11.7" height="11.8"/>
	<rect id="_x30_8202020_x5F_PM" x="1061.1" y="55.6" class="st3" width="11.7" height="11.8"/>
	<rect id="_x30_8212020_x5F_PM" x="1075" y="55.6" class="st3" width="11.7" height="11.8"/>
	<rect id="_x30_8222020_x5F_PM" x="1088.9" y="55.6" class="st3" width="11.7" height="11.8"/>
	<rect id="_x30_8232020_x5F_AM" x="1104.6" y="43.9" class="st3" width="11.7" height="11.8"/>
	<rect id="_x30_8242020_x5F_AM" x="1118.4" y="43.9" class="st3" width="11.7" height="11.8"/>
	<rect id="_x30_8252020_x5F_AM" x="1132.2" y="43.9" class="st3" width="11.7" height="11.8"/>
	<rect id="_x30_8262020_x5F_AM" x="1146.1" y="43.9" class="st3" width="11.7" height="11.8"/>
	<rect id="_x30_8272020_x5F_AM" x="1159.9" y="43.9" class="st3" width="11.7" height="11.8"/>
	<rect id="_x30_8282020_x5F_AM" x="1173.7" y="43.9" class="st3" width="11.7" height="11.8"/>
	<rect id="_x30_8292020_x5F_AM" x="1187.9" y="43.9" class="st3" width="11.7" height="11.8"/>
	<rect id="_x30_8232020_x5F_PM" x="1104.6" y="55.6" class="st3" width="11.7" height="11.8"/>
	<rect id="_x30_8242020_x5F_PM" x="1118.4" y="55.6" class="st3" width="11.7" height="11.8"/>
	<rect id="_x30_8252020_x5F_PM" x="1132.2" y="55.6" class="st3" width="11.7" height="11.8"/>
	<rect id="_x30_8262020_x5F_PM" x="1146.1" y="55.6" class="st3" width="11.7" height="11.8"/>
	<rect id="_x30_8272020_x5F_PM" x="1159.9" y="55.6" class="st3" width="11.7" height="11.8"/>
	<rect id="_x30_8282020_x5F_PM" x="1173.7" y="55.6" class="st3" width="11.7" height="11.8"/>
	<rect id="_x30_8292020_x5F_PM" x="1187.9" y="55.6" class="st3" width="11.7" height="11.8"/>
	<rect id="_x30_8302020_x5F_AM" x="1203.5" y="43.9" class="st3" width="11.7" height="11.8"/>
	<rect id="_x30_8312020_x5F_AM" x="1217.3" y="43.9" class="st3" width="11.7" height="11.8"/>
	<rect id="_x30_9012020_x5F_AM" x="1231.1" y="43.9" class="st3" width="11.7" height="11.8"/>
	<rect id="_x30_9022020_x5F_AM" x="1245" y="43.9" class="st3" width="11.7" height="11.8"/>
	<rect id="_x30_9032020_x5F_AM" x="1258.8" y="43.9" class="st3" width="11.7" height="11.8"/>
	<rect id="_x30_9042020_x5F_AM" x="1272.6" y="43.9" class="st3" width="11.7" height="11.8"/>
	<rect id="_x30_9052020_x5F_AM" x="1286.8" y="43.9" class="st3" width="11.7" height="11.8"/>
	<rect id="_x30_8302020_x5F_PM" x="1203.5" y="55.6" class="st3" width="11.7" height="11.8"/>
	<rect id="_x30_8312020_x5F_PM" x="1217.3" y="55.6" class="st3" width="11.7" height="11.8"/>
	<rect id="_x30_9012020_x5F_PM" x="1231.1" y="55.6" class="st3" width="11.7" height="11.8"/>
	<rect id="_x30_9022020_x5F_PM" x="1245" y="55.6" class="st3" width="11.7" height="11.8"/>
	<rect id="_x30_9032020_x5F_PM" x="1258.8" y="55.6" class="st3" width="11.7" height="11.8"/>
	<rect id="_x30_9042020_x5F_PM" x="1272.6" y="55.6" class="st3" width="11.7" height="11.8"/>
	<rect id="_x30_9052020_x5F_PM" x="1286.8" y="55.6" class="st3" width="11.7" height="11.8"/>
</g>
<g id="buttons">
	<path class="st4" d="M0,42.8v11.4h11.3V42.8H0z M10.1,50.8c0.6,0.6,0.6,1.5,0,2.1c-0.3,0.3-0.7,0.4-1.1,0.4c-0.4,0-0.8-0.2-1.1-0.4
		l-2.3-2.3l-2.3,2.3c-0.3,0.3-0.7,0.4-1.1,0.4s-0.8-0.2-1.1-0.4c-0.6-0.6-0.6-1.5,0-2.1l2.3-2.3l-2.3-2.3c-0.6-0.6-0.6-1.5,0-2.1
		c0.6-0.6,1.5-0.6,2.1,0l2.3,2.3L8,44c0.6-0.6,1.5-0.6,2.1,0c0.6,0.6,0.6,1.5,0,2.1l-2.3,2.3L10.1,50.8z"/>
	<path id="timeLineButtonDeselectAll" class="st5" d="M9.6,45.2c-0.6-0.6-1.6-0.6-2.2,0l-2.4,2.4l-2.4-2.4c-0.6-0.6-1.6-0.6-2.2,0
		c-0.6,0.6-0.6,1.6,0,2.2l2.4,2.4l-2.4,2.4c-0.6,0.6-0.6,1.6,0,2.2c0.3,0.3,0.7,0.5,1.1,0.5s0.8-0.2,1.1-0.5L5.1,52l2.4,2.4
		c0.3,0.3,0.7,0.5,1.1,0.5c0.4,0,0.8-0.2,1.1-0.5c0.6-0.6,0.6-1.6,0-2.2l-2.4-2.4l2.4-2.4C10.2,46.8,10.2,45.8,9.6,45.2z"/>
</g>
<g id="Layer_5">
</g>
<g>
	<path class="st6" d="M23.7,38.5c0-0.1,0-0.2-0.1-0.3c-0.1-0.1-0.2-0.1-0.5-0.2s-0.4-0.2-0.5-0.2C22.2,37.6,22,37.3,22,37
		c0-0.2,0-0.3,0.1-0.5s0.2-0.2,0.4-0.3s0.4-0.1,0.6-0.1c0.2,0,0.4,0,0.6,0.1c0.2,0.1,0.3,0.2,0.4,0.3c0.1,0.2,0.1,0.3,0.1,0.5h-0.6
		c0-0.2,0-0.3-0.1-0.3c-0.1-0.1-0.2-0.1-0.4-0.1c-0.2,0-0.3,0-0.4,0.1s-0.1,0.2-0.1,0.3c0,0.1,0,0.2,0.2,0.3
		c0.1,0.1,0.3,0.1,0.5,0.2c0.4,0.1,0.6,0.2,0.8,0.4c0.2,0.2,0.3,0.4,0.3,0.6c0,0.3-0.1,0.5-0.3,0.7c-0.2,0.2-0.5,0.2-0.8,0.2
		c-0.2,0-0.5,0-0.7-0.1c-0.2-0.1-0.4-0.2-0.5-0.4c-0.1-0.2-0.2-0.3-0.2-0.5h0.7c0,0.4,0.2,0.5,0.6,0.5c0.2,0,0.3,0,0.4-0.1
		S23.7,38.6,23.7,38.5z"/>
</g>
<g>
	<path class="st6" d="M16.3,11h1.4v4.6c0,0.4-0.1,0.8-0.3,1.1c-0.2,0.3-0.5,0.6-0.8,0.8c-0.3,0.2-0.7,0.3-1.1,0.3
		c-0.7,0-1.2-0.2-1.6-0.5c-0.4-0.4-0.6-0.9-0.6-1.5h1.4c0,0.3,0.1,0.6,0.2,0.7c0.1,0.1,0.4,0.2,0.6,0.2c0.3,0,0.5-0.1,0.6-0.3
		c0.1-0.2,0.2-0.4,0.2-0.8L16.3,11L16.3,11z"/>
	<path class="st6" d="M21.6,17.1c-0.3,0.4-0.8,0.6-1.3,0.6c-0.5,0-0.9-0.1-1.2-0.4c-0.3-0.3-0.4-0.8-0.4-1.3v-3.2H20v3.2
		c0,0.5,0.2,0.8,0.7,0.8c0.4,0,0.8-0.1,0.9-0.5v-3.5h1.3v4.9h-1.2L21.6,17.1z"/>
	<path class="st6" d="M25.1,12.7l0,0.6c0.4-0.4,0.8-0.7,1.4-0.7c0.5,0,0.9,0.2,1.2,0.5c0.3,0.3,0.4,0.8,0.4,1.4v3.2h-1.3v-3.1
		c0-0.3-0.1-0.5-0.2-0.6c-0.1-0.1-0.3-0.2-0.6-0.2c-0.4,0-0.6,0.2-0.8,0.5v3.5h-1.3v-4.9H25.1z"/>
	<path class="st6" d="M31.4,17.7c-0.7,0-1.3-0.2-1.8-0.7c-0.5-0.4-0.7-1-0.7-1.8v-0.1c0-0.5,0.1-0.9,0.3-1.3
		c0.2-0.4,0.5-0.7,0.8-0.9s0.8-0.3,1.2-0.3c0.7,0,1.2,0.2,1.6,0.6c0.4,0.4,0.6,1,0.6,1.8v0.5h-3.1c0,0.3,0.2,0.6,0.4,0.8
		s0.5,0.3,0.8,0.3c0.5,0,0.9-0.2,1.2-0.6l0.6,0.7c-0.2,0.3-0.5,0.5-0.8,0.6C32.1,17.6,31.8,17.7,31.4,17.7z M31.2,13.7
		c-0.3,0-0.5,0.1-0.6,0.3c-0.2,0.2-0.3,0.4-0.3,0.8h1.8v-0.1c0-0.3-0.1-0.5-0.2-0.7C31.7,13.7,31.5,13.7,31.2,13.7z"/>
</g>
<g>
	<path class="st6" d="M17.7,27.4l-2.6,5.9h-1.4l2.6-5.6H13v-1.1h4.7L17.7,27.4L17.7,27.4z"/>
</g>
<g>
	<path class="st7" d="M111.8,33.4h-1.3v-5.1l-1.6,0.5v-1.1l2.7-1h0.1C111.8,26.8,111.8,33.4,111.8,33.4z"/>
	<path class="st7" d="M117.8,30.9h0.8V32h-0.8v1.4h-1.3V32h-2.7l-0.1-0.8l2.8-4.4h1.3L117.8,30.9L117.8,30.9z M115,30.9h1.5v-2.3
		l-0.1,0.1L115,30.9z"/>
</g>
<g>
	<path class="st7" d="M212.4,33.6h-4.5v-0.9l2.1-2.3c0.3-0.3,0.5-0.6,0.6-0.8s0.2-0.5,0.2-0.7c0-0.3-0.1-0.5-0.2-0.7
		s-0.4-0.2-0.6-0.2c-0.3,0-0.5,0.1-0.7,0.3s-0.3,0.5-0.3,0.8h-1.3c0-0.4,0.1-0.8,0.3-1.1c0.2-0.3,0.5-0.6,0.8-0.8
		c0.4-0.2,0.8-0.3,1.2-0.3c0.7,0,1.2,0.2,1.6,0.5c0.4,0.3,0.6,0.8,0.6,1.4c0,0.3-0.1,0.7-0.2,1s-0.5,0.7-0.9,1.2l-1.5,1.6h2.8V33.6z
		"/>
	<path class="st7" d="M216.4,33.6h-1.3v-5.1l-1.6,0.5v-1.1l2.7-1h0.1V33.6z"/>
</g>
<g>
	<path class="st7" d="M310.8,33.6h-4.5v-0.9l2.1-2.3c0.3-0.3,0.5-0.6,0.6-0.8c0.1-0.2,0.2-0.5,0.2-0.7c0-0.3-0.1-0.5-0.2-0.7
		s-0.4-0.2-0.6-0.2c-0.3,0-0.5,0.1-0.7,0.3s-0.3,0.5-0.3,0.8h-1.3c0-0.4,0.1-0.8,0.3-1.1s0.5-0.6,0.8-0.8s0.8-0.3,1.2-0.3
		c0.7,0,1.2,0.2,1.6,0.5s0.6,0.8,0.6,1.4c0,0.3-0.1,0.7-0.2,1s-0.5,0.7-0.9,1.2l-1.5,1.6h2.8L310.8,33.6L310.8,33.6z"/>
	<path class="st7" d="M315.9,28.7c0,0.3-0.1,0.6-0.2,0.9c-0.2,0.2-0.4,0.5-0.7,0.6c0.3,0.1,0.6,0.4,0.8,0.6c0.2,0.3,0.3,0.6,0.3,1
		c0,0.6-0.2,1-0.6,1.4c-0.4,0.3-0.9,0.5-1.6,0.5s-1.2-0.2-1.6-0.5c-0.4-0.3-0.6-0.8-0.6-1.4c0-0.4,0.1-0.7,0.3-1
		c0.2-0.3,0.4-0.5,0.8-0.6c-0.3-0.1-0.5-0.4-0.7-0.6s-0.2-0.5-0.2-0.9c0-0.6,0.2-1,0.6-1.4c0.4-0.3,0.9-0.5,1.5-0.5
		c0.6,0,1.1,0.2,1.5,0.5C315.7,27.7,315.9,28.2,315.9,28.7z M314.8,31.7c0-0.3-0.1-0.5-0.2-0.7s-0.4-0.3-0.7-0.3s-0.5,0.1-0.7,0.3
		s-0.2,0.4-0.2,0.7c0,0.3,0.1,0.5,0.2,0.7s0.4,0.3,0.7,0.3c0.3,0,0.5-0.1,0.7-0.2C314.7,32.2,314.8,32,314.8,31.7z M314.6,28.8
		c0-0.3-0.1-0.5-0.2-0.6c-0.1-0.2-0.3-0.2-0.6-0.2c-0.2,0-0.4,0.1-0.6,0.2s-0.2,0.4-0.2,0.6c0,0.3,0.1,0.5,0.2,0.6
		c0.1,0.2,0.3,0.2,0.6,0.2s0.4-0.1,0.6-0.2C314.5,29.3,314.6,29.1,314.6,28.8z"/>
</g>
<g>
	<path class="st8" d="M408.2,30.3l0.4-3.4h3.7v1.1h-2.6l-0.2,1.4c0.3-0.2,0.6-0.2,1-0.2c0.6,0,1.1,0.2,1.5,0.6
		c0.4,0.4,0.5,0.9,0.5,1.6c0,0.4-0.1,0.8-0.3,1.2c-0.2,0.3-0.4,0.6-0.8,0.8c-0.3,0.2-0.7,0.3-1.2,0.3c-0.4,0-0.8-0.1-1.1-0.2
		c-0.3-0.2-0.6-0.4-0.8-0.7s-0.3-0.6-0.3-1h1.3c0,0.3,0.1,0.5,0.3,0.6c0.2,0.1,0.4,0.2,0.6,0.2c0.3,0,0.5-0.1,0.7-0.3
		s0.2-0.5,0.2-0.9c0-0.4-0.1-0.7-0.3-0.9c-0.2-0.2-0.5-0.3-0.8-0.3c-0.3,0-0.6,0.1-0.8,0.2l-0.1,0.1L408.2,30.3z"/>
</g>
<g>
	<path class="st8" d="M507.6,33.4h-1.3v-5.1l-1.6,0.5v-1.1l2.7-1h0.1L507.6,33.4L507.6,33.4z"/>
	<path class="st8" d="M514.3,33.4h-4.5v-0.9l2.1-2.3c0.3-0.3,0.5-0.6,0.6-0.8s0.2-0.5,0.2-0.7c0-0.3-0.1-0.5-0.2-0.7
		c-0.2-0.2-0.4-0.2-0.6-0.2c-0.3,0-0.5,0.1-0.7,0.3s-0.3,0.5-0.3,0.8h-1.3c0-0.4,0.1-0.8,0.3-1.1s0.5-0.6,0.8-0.8s0.8-0.3,1.2-0.3
		c0.7,0,1.2,0.2,1.6,0.5s0.6,0.8,0.6,1.4c0,0.3-0.1,0.7-0.2,1s-0.5,0.7-0.9,1.2l-1.5,1.6h2.8L514.3,33.4L514.3,33.4z"/>
</g>
<g>
	<path class="st8" d="M606.4,33.6h-1.3v-5.1l-1.6,0.5v-1.1l2.7-1h0.1V33.6z"/>
	<path class="st8" d="M611.6,30.9c-0.3,0.3-0.7,0.5-1.2,0.5c-0.6,0-1-0.2-1.4-0.6c-0.3-0.4-0.5-0.9-0.5-1.6c0-0.4,0.1-0.8,0.3-1.2
		s0.5-0.6,0.8-0.9c0.3-0.2,0.7-0.3,1.1-0.3c0.4,0,0.8,0.1,1.2,0.3c0.3,0.2,0.6,0.5,0.8,0.9s0.3,0.9,0.3,1.4V30c0,1.1-0.3,2-0.8,2.6
		c-0.5,0.6-1.3,1-2.3,1h-0.3v-1.1h0.3C610.9,32.5,611.5,32,611.6,30.9z M610.7,30.4c0.2,0,0.4,0,0.5-0.2c0.2-0.1,0.3-0.2,0.3-0.4
		v-0.5c0-0.5-0.1-0.8-0.2-1c-0.2-0.2-0.4-0.4-0.7-0.4c-0.3,0-0.5,0.1-0.7,0.4c-0.2,0.2-0.2,0.5-0.2,0.9c0,0.4,0.1,0.7,0.2,0.9
		C610.2,30.3,610.4,30.4,610.7,30.4z"/>
</g>
<g>
	<path class="st8" d="M706.7,33.6h-4.5v-0.9l2.1-2.3c0.3-0.3,0.5-0.6,0.7-0.8s0.2-0.5,0.2-0.7c0-0.3-0.1-0.5-0.2-0.7
		c-0.2-0.2-0.4-0.2-0.6-0.2c-0.3,0-0.5,0.1-0.7,0.3s-0.3,0.5-0.3,0.8h-1.3c0-0.4,0.1-0.8,0.3-1.1s0.5-0.6,0.8-0.8s0.8-0.3,1.2-0.3
		c0.7,0,1.2,0.2,1.6,0.5s0.6,0.8,0.6,1.4c0,0.3-0.1,0.7-0.2,1s-0.5,0.7-0.9,1.2l-1.5,1.6h2.8L706.7,33.6L706.7,33.6z"/>
	<path class="st8" d="M707.7,30.3l0.4-3.4h3.7v1.1h-2.6l-0.2,1.4c0.3-0.2,0.6-0.2,1-0.2c0.6,0,1.1,0.2,1.5,0.6s0.5,0.9,0.5,1.6
		c0,0.4-0.1,0.8-0.3,1.2c-0.2,0.3-0.4,0.6-0.8,0.8c-0.3,0.2-0.7,0.3-1.2,0.3c-0.4,0-0.8-0.1-1.1-0.2c-0.3-0.2-0.6-0.4-0.8-0.7
		s-0.3-0.6-0.3-1h1.3c0,0.3,0.1,0.5,0.3,0.6c0.2,0.1,0.4,0.2,0.7,0.2c0.3,0,0.5-0.1,0.7-0.3s0.2-0.5,0.2-0.9c0-0.4-0.1-0.7-0.3-0.9
		c-0.2-0.2-0.5-0.3-0.8-0.3c-0.3,0-0.6,0.1-0.8,0.2l-0.1,0.1L707.7,30.3z"/>
</g>
<g>
	<path class="st8" d="M809,33.3h-4.5v-0.9l2.1-2.3c0.3-0.3,0.5-0.6,0.7-0.8s0.2-0.5,0.2-0.7c0-0.3-0.1-0.5-0.2-0.7
		c-0.2-0.2-0.4-0.2-0.6-0.2c-0.3,0-0.5,0.1-0.7,0.3s-0.3,0.5-0.3,0.8h-1.3c0-0.4,0.1-0.8,0.3-1.1s0.5-0.6,0.8-0.8s0.8-0.3,1.2-0.3
		c0.7,0,1.2,0.2,1.6,0.5s0.6,0.8,0.6,1.4c0,0.3-0.1,0.7-0.2,1s-0.5,0.7-0.9,1.2l-1.5,1.6h2.8L809,33.3L809,33.3z"/>
</g>
<g>
	<path class="st8" d="M906.3,30.6c-0.3,0.3-0.7,0.5-1.2,0.5c-0.6,0-1-0.2-1.4-0.6c-0.3-0.4-0.5-0.9-0.5-1.6c0-0.4,0.1-0.8,0.3-1.2
		s0.5-0.6,0.8-0.9c0.3-0.2,0.7-0.3,1.1-0.3c0.4,0,0.8,0.1,1.2,0.3c0.3,0.2,0.6,0.5,0.8,0.9s0.3,0.9,0.3,1.4v0.5c0,1.1-0.3,2-0.8,2.6
		c-0.5,0.6-1.3,1-2.3,1h-0.3v-1.1h0.3C905.6,32.2,906.2,31.6,906.3,30.6z M905.5,30.1c0.2,0,0.4,0,0.5-0.2s0.3-0.2,0.3-0.4V29
		c0-0.5-0.1-0.8-0.2-1c-0.2-0.2-0.4-0.4-0.7-0.4c-0.3,0-0.5,0.1-0.7,0.4c-0.2,0.2-0.2,0.5-0.2,0.9c0,0.4,0.1,0.7,0.2,0.9
		C904.9,30,905.2,30.1,905.5,30.1z"/>
</g>
<g>
	<path class="st8" d="M1002,33.3h-1.3v-5.1l-1.6,0.5v-1.1l2.7-1h0.1V33.3z"/>
	<path class="st8" d="M1007.7,26.6v1.1h-0.1c-0.6,0-1.1,0.2-1.4,0.5s-0.6,0.7-0.7,1.2c0.3-0.4,0.8-0.5,1.3-0.5c0.6,0,1,0.2,1.4,0.6
		c0.3,0.4,0.5,1,0.5,1.6c0,0.4-0.1,0.8-0.3,1.2c-0.2,0.4-0.5,0.6-0.8,0.8c-0.3,0.2-0.7,0.3-1.2,0.3c-0.7,0-1.3-0.2-1.7-0.7
		c-0.4-0.5-0.6-1.1-0.6-1.9v-0.5c0-0.7,0.1-1.4,0.4-1.9c0.3-0.5,0.7-1,1.2-1.3c0.5-0.3,1.1-0.4,1.8-0.5H1007.7z M1006.5,29.9
		c-0.2,0-0.4,0.1-0.6,0.2c-0.2,0.1-0.3,0.3-0.4,0.4v0.4c0,0.4,0.1,0.8,0.3,1c0.2,0.2,0.4,0.4,0.7,0.4c0.3,0,0.5-0.1,0.7-0.3
		s0.3-0.5,0.3-0.9c0-0.4-0.1-0.6-0.3-0.9C1007,30,1006.8,29.9,1006.5,29.9z"/>
</g>
<g>
	<path class="st8" d="M1102.3,33.3h-4.5v-0.9l2.1-2.3c0.3-0.3,0.5-0.6,0.7-0.8s0.2-0.5,0.2-0.7c0-0.3-0.1-0.5-0.2-0.7
		s-0.4-0.2-0.6-0.2c-0.3,0-0.5,0.1-0.7,0.3c-0.2,0.2-0.3,0.5-0.3,0.8h-1.3c0-0.4,0.1-0.8,0.3-1.1c0.2-0.3,0.5-0.6,0.8-0.8
		c0.3-0.2,0.8-0.3,1.2-0.3c0.7,0,1.2,0.2,1.6,0.5c0.4,0.3,0.6,0.8,0.6,1.4c0,0.3-0.1,0.7-0.2,1s-0.5,0.7-0.9,1.2l-1.5,1.6h2.8V33.3z
		"/>
	<path class="st8" d="M1104.4,29.4h0.7c0.3,0,0.6-0.1,0.7-0.2s0.2-0.4,0.2-0.7s-0.1-0.5-0.2-0.6s-0.4-0.2-0.7-0.2
		c-0.2,0-0.5,0.1-0.6,0.2s-0.2,0.3-0.2,0.5h-1.3c0-0.4,0.1-0.7,0.3-0.9c0.2-0.3,0.4-0.5,0.8-0.6c0.3-0.1,0.7-0.2,1.1-0.2
		c0.7,0,1.2,0.2,1.6,0.5c0.4,0.3,0.6,0.8,0.6,1.4c0,0.3-0.1,0.6-0.3,0.8c-0.2,0.2-0.4,0.5-0.7,0.6c0.4,0.1,0.7,0.3,0.8,0.6
		c0.2,0.3,0.3,0.6,0.3,1c0,0.6-0.2,1.1-0.6,1.4c-0.4,0.3-1,0.5-1.7,0.5c-0.7,0-1.2-0.2-1.6-0.5s-0.6-0.8-0.6-1.4h1.3
		c0,0.2,0.1,0.5,0.3,0.6c0.2,0.2,0.4,0.2,0.7,0.2c0.3,0,0.6-0.1,0.7-0.2c0.2-0.2,0.3-0.4,0.3-0.7c0-0.7-0.4-1-1.1-1h-0.7
		L1104.4,29.4L1104.4,29.4z"/>
</g>
<g>
	<path class="st7" d="M356.8,11h1.4v4.6c0,0.4-0.1,0.8-0.3,1.1c-0.2,0.3-0.5,0.6-0.8,0.8c-0.3,0.2-0.7,0.3-1.1,0.3
		c-0.7,0-1.2-0.2-1.6-0.5c-0.4-0.4-0.6-0.9-0.6-1.5h1.4c0,0.3,0.1,0.6,0.2,0.7c0.1,0.1,0.4,0.2,0.6,0.2c0.3,0,0.5-0.1,0.6-0.3
		c0.1-0.2,0.2-0.4,0.2-0.8L356.8,11L356.8,11z"/>
	<path class="st7" d="M362.2,17.1c-0.3,0.4-0.8,0.6-1.3,0.6c-0.5,0-0.9-0.1-1.2-0.4c-0.3-0.3-0.4-0.8-0.4-1.3v-3.2h1.3v3.2
		c0,0.5,0.2,0.8,0.7,0.8c0.4,0,0.8-0.1,0.9-0.5v-3.5h1.3v4.9h-1.2L362.2,17.1z"/>
	<path class="st7" d="M365.8,17.6h-1.3v-7h1.3V17.6z"/>
	<path class="st7" d="M368.7,15.7l0.9-3.1h1.4l-2,5.7l-0.1,0.3c-0.3,0.6-0.8,1-1.5,1c-0.2,0-0.4,0-0.6-0.1v-1h0.2
		c0.2,0,0.4,0,0.5-0.1c0.1-0.1,0.2-0.2,0.3-0.4l0.1-0.4l-1.7-4.9h1.4L368.7,15.7z"/>
</g>
<g>
	<path class="st8" d="M794.5,16.2h-2.4l-0.5,1.4h-1.5l2.5-6.6h1.3l2.5,6.6H795L794.5,16.2z M792.5,15.1h1.7l-0.8-2.5L792.5,15.1z"/>
	<path class="st8" d="M799.9,17.1c-0.3,0.4-0.8,0.6-1.3,0.6c-0.5,0-0.9-0.1-1.2-0.4c-0.3-0.3-0.4-0.8-0.4-1.3v-3.2h1.3v3.2
		c0,0.5,0.2,0.8,0.7,0.8c0.4,0,0.8-0.1,0.9-0.5v-3.5h1.3v4.9h-1.2L799.9,17.1z"/>
	<path class="st8" d="M801.9,15.1c0-0.8,0.2-1.4,0.5-1.8c0.4-0.5,0.8-0.7,1.5-0.7c0.5,0,1,0.2,1.2,0.6l0-0.5h1.2v4.8
		c0,0.4-0.1,0.8-0.3,1.1c-0.2,0.3-0.5,0.6-0.8,0.7s-0.8,0.2-1.2,0.2c-0.4,0-0.7-0.1-1-0.2c-0.3-0.2-0.6-0.3-0.8-0.6l0.6-0.8
		c0.3,0.4,0.7,0.5,1.2,0.5c0.3,0,0.6-0.1,0.8-0.3s0.3-0.4,0.3-0.8v-0.3c-0.3,0.3-0.7,0.5-1.2,0.5c-0.6,0-1.1-0.2-1.4-0.7
		C802.1,16.5,801.9,15.9,801.9,15.1L801.9,15.1L801.9,15.1z M803.2,15.2c0,0.4,0.1,0.8,0.3,1.1s0.4,0.4,0.7,0.4
		c0.4,0,0.7-0.1,0.9-0.4v-2.1c-0.2-0.3-0.5-0.4-0.8-0.4c-0.3,0-0.6,0.1-0.7,0.4S803.2,14.7,803.2,15.2z"/>
	<path class="st8" d="M810.3,17.1c-0.3,0.4-0.8,0.6-1.3,0.6c-0.5,0-0.9-0.1-1.2-0.4c-0.3-0.3-0.4-0.8-0.4-1.3v-3.2h1.3v3.2
		c0,0.5,0.2,0.8,0.7,0.8c0.4,0,0.8-0.1,0.9-0.5v-3.5h1.3v4.9h-1.2L810.3,17.1z"/>
	<path class="st8" d="M815.3,16.2c0-0.2-0.1-0.3-0.2-0.4s-0.4-0.2-0.8-0.2c-1.2-0.2-1.8-0.7-1.8-1.5c0-0.4,0.2-0.8,0.5-1.1
		s0.8-0.4,1.4-0.4c0.6,0,1.1,0.2,1.5,0.4s0.6,0.7,0.6,1.1h-1.3c0-0.2-0.1-0.3-0.2-0.5c-0.1-0.1-0.3-0.2-0.6-0.2
		c-0.2,0-0.4,0.1-0.5,0.1c-0.1,0.1-0.2,0.2-0.2,0.4c0,0.1,0.1,0.3,0.2,0.3s0.4,0.2,0.7,0.2c0.3,0.1,0.6,0.1,0.8,0.2
		c0.7,0.2,1,0.7,1,1.3c0,0.5-0.2,0.8-0.6,1.1c-0.4,0.3-0.9,0.4-1.5,0.4c-0.4,0-0.8-0.1-1.1-0.2c-0.3-0.1-0.6-0.4-0.8-0.6
		s-0.3-0.5-0.3-0.8h1.2c0,0.2,0.1,0.4,0.3,0.5c0.2,0.1,0.4,0.2,0.6,0.2c0.2,0,0.4,0,0.6-0.1C815.2,16.5,815.3,16.4,815.3,16.2z"/>
	<path class="st8" d="M818.9,11.5v1.2h0.8v1h-0.8v2.5c0,0.2,0,0.3,0.1,0.4c0.1,0.1,0.2,0.1,0.4,0.1c0.2,0,0.3,0,0.4,0v1
		c-0.3,0.1-0.5,0.1-0.8,0.1c-0.9,0-1.4-0.5-1.4-1.4v-2.6h-0.7v-1h0.7v-1.2H818.9z"/>
</g>
<g>
	<path class="st8" d="M1234.1,15.9c0-0.3-0.1-0.5-0.3-0.6c-0.2-0.1-0.5-0.3-1-0.4c-0.5-0.1-0.8-0.3-1.1-0.4
		c-0.8-0.4-1.1-0.9-1.1-1.6c0-0.4,0.1-0.7,0.3-1c0.2-0.3,0.5-0.5,0.9-0.7c0.4-0.2,0.8-0.2,1.3-0.2s0.9,0.1,1.3,0.3s0.7,0.4,0.9,0.7
		c0.2,0.3,0.3,0.7,0.3,1.1h-1.4c0-0.3-0.1-0.5-0.3-0.7c-0.2-0.2-0.5-0.2-0.8-0.2c-0.3,0-0.6,0.1-0.8,0.2c-0.2,0.1-0.3,0.3-0.3,0.6
		c0,0.2,0.1,0.4,0.3,0.5c0.2,0.2,0.5,0.3,0.9,0.4c0.8,0.2,1.3,0.5,1.7,0.9c0.3,0.4,0.5,0.8,0.5,1.3c0,0.6-0.2,1-0.7,1.4
		c-0.4,0.3-1,0.5-1.7,0.5c-0.5,0-1-0.1-1.4-0.3c-0.4-0.2-0.7-0.4-0.9-0.8c-0.2-0.3-0.3-0.7-0.3-1.1h1.4c0,0.7,0.4,1.1,1.3,1.1
		c0.3,0,0.6-0.1,0.8-0.2S1234.1,16.1,1234.1,15.9z"/>
	<path class="st8" d="M1238.6,17.7c-0.7,0-1.3-0.2-1.8-0.7c-0.4-0.4-0.7-1-0.7-1.8v-0.1c0-0.5,0.1-0.9,0.3-1.3
		c0.2-0.4,0.5-0.7,0.8-0.9c0.3-0.2,0.8-0.3,1.2-0.3c0.7,0,1.2,0.2,1.6,0.6c0.4,0.4,0.6,1,0.6,1.8v0.5h-3.1c0,0.3,0.2,0.6,0.4,0.8
		s0.5,0.3,0.8,0.3c0.5,0,0.9-0.2,1.2-0.6l0.6,0.7c-0.2,0.3-0.5,0.5-0.8,0.6C1239.3,17.6,1239,17.7,1238.6,17.7z M1238.4,13.7
		c-0.3,0-0.5,0.1-0.6,0.3c-0.2,0.2-0.3,0.4-0.3,0.8h1.8v-0.1c0-0.3-0.1-0.5-0.2-0.7C1238.9,13.7,1238.7,13.7,1238.4,13.7z"/>
	<path class="st8" d="M1245.7,15.2c0,0.8-0.2,1.4-0.5,1.8c-0.3,0.5-0.8,0.7-1.4,0.7c-0.5,0-0.9-0.2-1.2-0.5v2.3h-1.3v-6.8h1.2l0,0.5
		c0.3-0.4,0.7-0.6,1.2-0.6c0.6,0,1.1,0.2,1.4,0.7C1245.5,13.7,1245.7,14.3,1245.7,15.2L1245.7,15.2L1245.7,15.2z M1244.4,15.1
		c0-0.5-0.1-0.8-0.2-1.1s-0.4-0.4-0.7-0.4c-0.4,0-0.7,0.2-0.8,0.5v2c0.2,0.3,0.4,0.5,0.9,0.5C1244.1,16.6,1244.4,16.1,1244.4,15.1z"
		/>
	<path class="st8" d="M1248.1,11.5v1.2h0.8v1h-0.8v2.5c0,0.2,0,0.3,0.1,0.4s0.2,0.1,0.4,0.1c0.2,0,0.3,0,0.4,0v1
		c-0.3,0.1-0.5,0.1-0.8,0.1c-0.9,0-1.4-0.5-1.4-1.4v-2.6h-0.7v-1h0.7v-1.2H1248.1z"/>
	<path class="st8" d="M1251.9,17.7c-0.7,0-1.3-0.2-1.8-0.7c-0.4-0.4-0.7-1-0.7-1.8v-0.1c0-0.5,0.1-0.9,0.3-1.3
		c0.2-0.4,0.5-0.7,0.8-0.9c0.3-0.2,0.8-0.3,1.2-0.3c0.7,0,1.2,0.2,1.6,0.6c0.4,0.4,0.6,1,0.6,1.8v0.5h-3.1c0,0.3,0.2,0.6,0.4,0.8
		s0.5,0.3,0.8,0.3c0.5,0,0.9-0.2,1.2-0.6l0.6,0.7c-0.2,0.3-0.5,0.5-0.8,0.6C1252.7,17.6,1252.3,17.7,1251.9,17.7z M1251.8,13.7
		c-0.3,0-0.5,0.1-0.6,0.3c-0.2,0.2-0.3,0.4-0.3,0.8h1.8v-0.1c0-0.3-0.1-0.5-0.2-0.7C1252.3,13.7,1252.1,13.7,1251.8,13.7z"/>
	<path class="st8" d="M1255.9,12.7l0,0.6c0.3-0.4,0.8-0.6,1.4-0.6c0.6,0,1.1,0.2,1.3,0.7c0.3-0.5,0.8-0.8,1.5-0.8
		c0.5,0,0.9,0.2,1.2,0.5c0.3,0.3,0.4,0.8,0.4,1.4v3.1h-1.3v-3.1c0-0.3-0.1-0.5-0.2-0.6s-0.3-0.2-0.6-0.2c-0.4,0-0.7,0.2-0.8,0.6v3.4
		h-1.3v-3.1c0-0.3-0.1-0.5-0.2-0.6c-0.1-0.1-0.3-0.2-0.6-0.2c-0.4,0-0.6,0.2-0.8,0.5v3.5h-1.3v-4.9H1255.9z"/>
	<path class="st8" d="M1267.2,15.2c0,0.8-0.2,1.4-0.5,1.8c-0.3,0.4-0.8,0.7-1.4,0.7c-0.5,0-1-0.2-1.3-0.6l-0.1,0.5h-1.2v-7h1.3v2.5
		c0.3-0.4,0.7-0.5,1.2-0.5c0.6,0,1.1,0.2,1.4,0.7C1267,13.7,1267.1,14.3,1267.2,15.2L1267.2,15.2L1267.2,15.2z M1265.8,15.1
		c0-0.5-0.1-0.9-0.2-1.1c-0.2-0.2-0.4-0.3-0.7-0.3c-0.4,0-0.7,0.2-0.9,0.5v2c0.2,0.4,0.4,0.5,0.9,0.5s0.7-0.2,0.8-0.6
		C1265.8,15.8,1265.8,15.5,1265.8,15.1z"/>
	<path class="st8" d="M1270.2,17.7c-0.7,0-1.3-0.2-1.8-0.7c-0.4-0.4-0.7-1-0.7-1.8v-0.1c0-0.5,0.1-0.9,0.3-1.3
		c0.2-0.4,0.5-0.7,0.8-0.9c0.3-0.2,0.8-0.3,1.2-0.3c0.7,0,1.2,0.2,1.6,0.6c0.4,0.4,0.6,1,0.6,1.8v0.5h-3.1c0,0.3,0.2,0.6,0.4,0.8
		s0.5,0.3,0.8,0.3c0.5,0,0.9-0.2,1.2-0.6l0.6,0.7c-0.2,0.3-0.5,0.5-0.8,0.6C1271,17.6,1270.6,17.7,1270.2,17.7z M1270.1,13.7
		c-0.3,0-0.5,0.1-0.6,0.3c-0.2,0.2-0.3,0.4-0.3,0.8h1.8v-0.1c0-0.3-0.1-0.5-0.2-0.7C1270.6,13.7,1270.3,13.7,1270.1,13.7z"/>
	<path class="st8" d="M1275.7,13.9c-0.2,0-0.3,0-0.5,0c-0.5,0-0.8,0.2-1,0.5v3.2h-1.3v-4.9h1.2l0,0.6c0.3-0.4,0.6-0.7,1.1-0.7
		c0.2,0,0.3,0,0.4,0.1L1275.7,13.9z"/>
</g>
<g>
	<path class="st6" d="M36,36.1l0.8,2.3l0.8-2.3h0.9v3.2h-0.7v-0.9l0.1-1.5l-0.9,2.4h-0.5L35.8,37l0.1,1.5v0.9h-0.7v-3.2H36z"/>
</g>
<g>
	<path class="st7" d="M52.2,36.7h-1v2.6h-0.7v-2.6h-1v-0.5h2.6V36.7z"/>
</g>
<g>
	<path class="st7" d="M65.4,38.4l0.4-2.3h0.7l-0.7,3.2h-0.7l-0.5-2.1l-0.5,2.1h-0.7l-0.7-3.2h0.7l0.4,2.3l0.5-2.3h0.6L65.4,38.4z"/>
</g>
<g>
	<path class="st7" d="M78.3,38.2h-0.5v1.2h-0.7v-3.2h1.2c0.4,0,0.7,0.1,0.9,0.2c0.2,0.2,0.3,0.4,0.3,0.7c0,0.2-0.1,0.4-0.1,0.5
		c-0.1,0.1-0.2,0.3-0.4,0.4l0.7,1.3v0H79L78.3,38.2z M77.8,37.6h0.5c0.2,0,0.3,0,0.4-0.1c0.1-0.1,0.1-0.2,0.1-0.4
		c0-0.1,0-0.3-0.1-0.3c-0.1-0.1-0.2-0.1-0.4-0.1h-0.5V37.6z"/>
</g>
<g>
	<path class="st7" d="M93,38h-1.3v1.3H91v-3.2h2.1v0.5h-1.4v0.8H93L93,38L93,38z"/>
</g>
<g>
	<path class="st7" d="M106.8,38.5c0-0.1,0-0.2-0.1-0.3s-0.2-0.1-0.5-0.2s-0.4-0.2-0.5-0.2c-0.4-0.2-0.5-0.5-0.5-0.8
		c0-0.2,0.1-0.3,0.2-0.5s0.2-0.2,0.4-0.3s0.4-0.1,0.6-0.1s0.4,0,0.6,0.1c0.2,0.1,0.3,0.2,0.4,0.3c0.1,0.2,0.2,0.3,0.2,0.5h-0.7
		c0-0.2-0.1-0.3-0.1-0.3c-0.1-0.1-0.2-0.1-0.4-0.1c-0.2,0-0.3,0-0.4,0.1c-0.1,0.1-0.1,0.2-0.1,0.3c0,0.1,0.1,0.2,0.2,0.3
		s0.3,0.1,0.5,0.2c0.4,0.1,0.6,0.2,0.8,0.4c0.2,0.2,0.3,0.4,0.3,0.6c0,0.3-0.1,0.5-0.3,0.6c-0.2,0.2-0.5,0.2-0.8,0.2
		c-0.2,0-0.5,0-0.7-0.1s-0.3-0.2-0.5-0.4c-0.1-0.2-0.2-0.3-0.2-0.5h0.7c0,0.3,0.2,0.5,0.6,0.5c0.2,0,0.3,0,0.4-0.1
		C106.7,38.7,106.8,38.6,106.8,38.5z"/>
</g>
<g>
	<path class="st7" d="M122.6,38.5c0-0.1,0-0.2-0.1-0.3s-0.2-0.1-0.5-0.2s-0.4-0.2-0.5-0.2c-0.4-0.2-0.5-0.5-0.5-0.8
		c0-0.2,0.1-0.3,0.2-0.5s0.2-0.2,0.4-0.3s0.4-0.1,0.6-0.1s0.4,0,0.6,0.1c0.2,0.1,0.3,0.2,0.4,0.3c0.1,0.2,0.2,0.3,0.2,0.5h-0.7
		c0-0.2-0.1-0.3-0.1-0.3c-0.1-0.1-0.2-0.1-0.4-0.1c-0.2,0-0.3,0-0.4,0.1c-0.1,0.1-0.1,0.2-0.1,0.3c0,0.1,0.1,0.2,0.2,0.3
		s0.3,0.1,0.5,0.2c0.4,0.1,0.6,0.2,0.8,0.4c0.2,0.2,0.3,0.4,0.3,0.6c0,0.3-0.1,0.5-0.3,0.6c-0.2,0.2-0.5,0.2-0.8,0.2
		c-0.2,0-0.5,0-0.7-0.1s-0.3-0.2-0.5-0.4c-0.1-0.2-0.2-0.3-0.2-0.5h0.7c0,0.3,0.2,0.5,0.6,0.5c0.2,0,0.3,0,0.4-0.1
		C122.6,38.7,122.6,38.6,122.6,38.5z"/>
</g>
<g>
	<path class="st7" d="M134.9,36.1l0.8,2.3l0.8-2.3h0.9v3.2h-0.7v-0.9l0.1-1.5l-0.9,2.4h-0.4l-0.9-2.4l0.1,1.5v0.9h-0.6v-3.2H134.9z"
		/>
</g>
<g>
	<path class="st7" d="M151.1,36.7h-1v2.6h-0.6v-2.6h-1v-0.5h2.6L151.1,36.7L151.1,36.7z"/>
</g>
<g>
	<path class="st7" d="M164.3,38.4l0.4-2.3h0.6l-0.7,3.2H164l-0.5-2.1l-0.5,2.1h-0.7l-0.7-3.2h0.6l0.4,2.3l0.5-2.3h0.6L164.3,38.4z"
		/>
</g>
<g>
	<path class="st7" d="M177.2,38.2h-0.5v1.2h-0.6v-3.2h1.2c0.4,0,0.7,0.1,0.9,0.2c0.2,0.2,0.3,0.4,0.3,0.7c0,0.2-0.1,0.4-0.1,0.5
		c-0.1,0.1-0.2,0.3-0.4,0.4l0.7,1.3v0h-0.7L177.2,38.2z M176.7,37.6h0.5c0.2,0,0.3,0,0.4-0.1c0.1-0.1,0.1-0.2,0.1-0.4
		c0-0.1,0-0.3-0.1-0.3c-0.1-0.1-0.2-0.1-0.4-0.1h-0.5V37.6z"/>
</g>
<g>
	<path class="st7" d="M191.9,38h-1.3v1.3H190v-3.2h2.1v0.5h-1.4v0.8h1.3L191.9,38L191.9,38z"/>
</g>
<g>
	<path class="st7" d="M205.7,38.5c0-0.1,0-0.2-0.1-0.3c-0.1-0.1-0.2-0.1-0.5-0.2s-0.4-0.2-0.5-0.2c-0.4-0.2-0.5-0.5-0.5-0.8
		c0-0.2,0.1-0.3,0.1-0.5c0.1-0.1,0.2-0.2,0.4-0.3s0.4-0.1,0.6-0.1s0.4,0,0.6,0.1c0.2,0.1,0.3,0.2,0.4,0.3c0.1,0.2,0.1,0.3,0.1,0.5
		h-0.6c0-0.2-0.1-0.3-0.1-0.3c-0.1-0.1-0.2-0.1-0.4-0.1c-0.2,0-0.3,0-0.4,0.1s-0.1,0.2-0.1,0.3c0,0.1,0.1,0.2,0.2,0.3
		s0.3,0.1,0.5,0.2c0.4,0.1,0.6,0.2,0.8,0.4c0.2,0.2,0.3,0.4,0.3,0.6c0,0.3-0.1,0.5-0.3,0.6c-0.2,0.2-0.5,0.2-0.8,0.2
		c-0.2,0-0.5,0-0.7-0.1s-0.4-0.2-0.5-0.4c-0.1-0.2-0.2-0.3-0.2-0.5h0.7c0,0.3,0.2,0.5,0.6,0.5c0.2,0,0.3,0,0.4-0.1
		C205.6,38.7,205.7,38.6,205.7,38.5z"/>
</g>
<g>
	<path class="st7" d="M221.5,38.5c0-0.1,0-0.2-0.1-0.3c-0.1-0.1-0.2-0.1-0.5-0.2s-0.4-0.2-0.5-0.2c-0.4-0.2-0.5-0.5-0.5-0.8
		c0-0.2,0.1-0.3,0.1-0.5c0.1-0.1,0.2-0.2,0.4-0.3s0.4-0.1,0.6-0.1s0.4,0,0.6,0.1c0.2,0.1,0.3,0.2,0.4,0.3c0.1,0.2,0.1,0.3,0.1,0.5
		h-0.6c0-0.2-0.1-0.3-0.1-0.3c-0.1-0.1-0.2-0.1-0.4-0.1c-0.2,0-0.3,0-0.4,0.1s-0.1,0.2-0.1,0.3c0,0.1,0.1,0.2,0.2,0.3
		s0.3,0.1,0.5,0.2c0.4,0.1,0.6,0.2,0.8,0.4c0.2,0.2,0.3,0.4,0.3,0.6c0,0.3-0.1,0.5-0.3,0.6c-0.2,0.2-0.5,0.2-0.8,0.2
		c-0.2,0-0.5,0-0.7-0.1s-0.4-0.2-0.5-0.4c-0.1-0.2-0.2-0.3-0.2-0.5h0.7c0,0.3,0.2,0.5,0.6,0.5c0.2,0,0.3,0,0.4-0.1
		C221.4,38.7,221.5,38.6,221.5,38.5z"/>
</g>
<g>
	<path class="st7" d="M233.8,36.1l0.8,2.3l0.8-2.3h0.9v3.2h-0.7v-0.9l0.1-1.5l-0.9,2.4h-0.4l-0.9-2.4l0.1,1.5v0.9H233v-3.2H233.8z"
		/>
</g>
<g>
	<path class="st7" d="M250,36.7h-1v2.6h-0.6v-2.6h-1v-0.5h2.6L250,36.7L250,36.7z"/>
</g>
<g>
	<path class="st7" d="M263.2,38.4l0.4-2.3h0.6l-0.7,3.2h-0.7l-0.5-2.1l-0.5,2.1h-0.7l-0.7-3.2h0.6l0.4,2.3l0.5-2.3h0.5L263.2,38.4z"
		/>
</g>
<g>
	<path class="st7" d="M276.1,38.2h-0.5v1.2H275v-3.2h1.2c0.4,0,0.7,0.1,0.9,0.2c0.2,0.2,0.3,0.4,0.3,0.7c0,0.2,0,0.4-0.1,0.5
		c-0.1,0.1-0.2,0.3-0.4,0.4l0.7,1.3v0h-0.7L276.1,38.2z M275.6,37.6h0.5c0.2,0,0.3,0,0.4-0.1c0.1-0.1,0.1-0.2,0.1-0.4
		c0-0.1,0-0.3-0.1-0.3c-0.1-0.1-0.2-0.1-0.4-0.1h-0.5V37.6z"/>
</g>
<g>
	<path class="st7" d="M290.8,38h-1.3v1.3h-0.6v-3.2h2.1v0.5h-1.4v0.8h1.3L290.8,38L290.8,38z"/>
</g>
<g>
	<path class="st7" d="M304.6,38.5c0-0.1,0-0.2-0.1-0.3s-0.2-0.1-0.5-0.2s-0.4-0.2-0.5-0.2c-0.4-0.2-0.5-0.5-0.5-0.8
		c0-0.2,0-0.3,0.1-0.5s0.2-0.2,0.4-0.3c0.2-0.1,0.4-0.1,0.6-0.1c0.2,0,0.4,0,0.6,0.1c0.2,0.1,0.3,0.2,0.4,0.3
		c0.1,0.2,0.1,0.3,0.1,0.5h-0.6c0-0.2,0-0.3-0.1-0.3c-0.1-0.1-0.2-0.1-0.4-0.1c-0.2,0-0.3,0-0.4,0.1s-0.1,0.2-0.1,0.3
		c0,0.1,0,0.2,0.2,0.3s0.3,0.1,0.5,0.2c0.4,0.1,0.6,0.2,0.8,0.4c0.2,0.2,0.3,0.4,0.3,0.6c0,0.3-0.1,0.5-0.3,0.6
		c-0.2,0.2-0.5,0.2-0.8,0.2c-0.2,0-0.5,0-0.7-0.1s-0.4-0.2-0.5-0.4c-0.1-0.2-0.2-0.3-0.2-0.5h0.7c0,0.3,0.2,0.5,0.6,0.5
		c0.2,0,0.3,0,0.4-0.1C304.5,38.7,304.6,38.6,304.6,38.5z"/>
</g>
<g>
	<path class="st7" d="M320.4,38.5c0-0.1,0-0.2-0.1-0.3s-0.2-0.1-0.5-0.2s-0.4-0.2-0.5-0.2c-0.4-0.2-0.5-0.5-0.5-0.8
		c0-0.2,0-0.3,0.1-0.5s0.2-0.2,0.4-0.3c0.2-0.1,0.4-0.1,0.6-0.1c0.2,0,0.4,0,0.6,0.1c0.2,0.1,0.3,0.2,0.4,0.3
		c0.1,0.2,0.1,0.3,0.1,0.5h-0.6c0-0.2,0-0.3-0.1-0.3c-0.1-0.1-0.2-0.1-0.4-0.1c-0.2,0-0.3,0-0.4,0.1s-0.1,0.2-0.1,0.3
		c0,0.1,0,0.2,0.2,0.3c0.1,0.1,0.3,0.1,0.5,0.2c0.4,0.1,0.6,0.2,0.8,0.4c0.2,0.2,0.3,0.4,0.3,0.6c0,0.3-0.1,0.5-0.3,0.6
		c-0.2,0.2-0.5,0.2-0.8,0.2c-0.2,0-0.5,0-0.7-0.1s-0.4-0.2-0.5-0.4c-0.1-0.2-0.2-0.3-0.2-0.5h0.7c0,0.3,0.2,0.5,0.6,0.5
		c0.2,0,0.3,0,0.4-0.1C320.4,38.7,320.4,38.6,320.4,38.5z"/>
</g>
<g>
	<path class="st7" d="M332.7,36.1l0.8,2.3l0.8-2.3h0.9v3.2h-0.7v-0.9l0.1-1.5l-0.9,2.4h-0.5l-0.9-2.4l0.1,1.5v0.9h-0.6v-3.2H332.7z"
		/>
</g>
<g>
	<path class="st7" d="M348.9,36.7h-1v2.6h-0.6v-2.6h-1v-0.5h2.6L348.9,36.7L348.9,36.7z"/>
</g>
<g>
	<path class="st7" d="M362.1,38.4l0.4-2.3h0.6l-0.7,3.2h-0.7l-0.5-2.1l-0.5,2.1h-0.7l-0.7-3.2h0.6l0.4,2.3l0.5-2.3h0.5L362.1,38.4z"
		/>
</g>
<g>
	<path class="st7" d="M375,38.2h-0.5v1.2h-0.6v-3.2h1.2c0.4,0,0.7,0.1,0.9,0.2c0.2,0.2,0.3,0.4,0.3,0.7c0,0.2,0,0.4-0.1,0.5
		c-0.1,0.1-0.2,0.3-0.4,0.4l0.7,1.3v0h-0.7L375,38.2z M374.5,37.6h0.5c0.2,0,0.3,0,0.4-0.1c0.1-0.1,0.1-0.2,0.1-0.4
		c0-0.1,0-0.3-0.1-0.3c-0.1-0.1-0.2-0.1-0.4-0.1h-0.5V37.6z"/>
</g>
<g>
	<path class="st8" d="M389.7,38h-1.3v1.3h-0.6v-3.2h2.1v0.5h-1.4v0.8h1.3L389.7,38L389.7,38z"/>
</g>
<g>
	<path class="st8" d="M403.5,38.5c0-0.1,0-0.2-0.1-0.3s-0.2-0.1-0.5-0.2s-0.4-0.2-0.5-0.2c-0.4-0.2-0.5-0.5-0.5-0.8
		c0-0.2,0-0.3,0.1-0.5s0.2-0.2,0.4-0.3c0.2-0.1,0.4-0.1,0.6-0.1c0.2,0,0.4,0,0.6,0.1c0.2,0.1,0.3,0.2,0.4,0.3
		c0.1,0.2,0.1,0.3,0.1,0.5h-0.6c0-0.2,0-0.3-0.1-0.3c-0.1-0.1-0.2-0.1-0.4-0.1c-0.2,0-0.3,0-0.4,0.1s-0.1,0.2-0.1,0.3
		c0,0.1,0,0.2,0.2,0.3c0.1,0.1,0.3,0.1,0.5,0.2c0.4,0.1,0.6,0.2,0.8,0.4c0.2,0.2,0.3,0.4,0.3,0.6c0,0.3-0.1,0.5-0.3,0.6
		c-0.2,0.2-0.5,0.2-0.8,0.2c-0.2,0-0.5,0-0.7-0.1s-0.4-0.2-0.5-0.4c-0.1-0.2-0.2-0.3-0.2-0.5h0.7c0,0.3,0.2,0.5,0.6,0.5
		c0.2,0,0.3,0,0.4-0.1C403.4,38.7,403.5,38.6,403.5,38.5z"/>
</g>
<g>
	<path class="st8" d="M419.3,38.5c0-0.1,0-0.2-0.1-0.3s-0.2-0.1-0.5-0.2s-0.4-0.2-0.5-0.2c-0.4-0.2-0.5-0.5-0.5-0.8
		c0-0.2,0-0.3,0.1-0.5s0.2-0.2,0.4-0.3c0.2-0.1,0.4-0.1,0.6-0.1c0.2,0,0.4,0,0.6,0.1c0.2,0.1,0.3,0.2,0.4,0.3
		c0.1,0.2,0.1,0.3,0.1,0.5h-0.6c0-0.2,0-0.3-0.1-0.3c-0.1-0.1-0.2-0.1-0.4-0.1c-0.2,0-0.3,0-0.4,0.1s-0.1,0.2-0.1,0.3
		c0,0.1,0,0.2,0.2,0.3c0.1,0.1,0.3,0.1,0.5,0.2c0.4,0.1,0.6,0.2,0.8,0.4c0.2,0.2,0.3,0.4,0.3,0.6c0,0.3-0.1,0.5-0.3,0.6
		c-0.2,0.2-0.5,0.2-0.8,0.2c-0.2,0-0.5,0-0.7-0.1s-0.4-0.2-0.5-0.4c-0.1-0.2-0.2-0.3-0.2-0.5h0.7c0,0.3,0.2,0.5,0.6,0.5
		c0.2,0,0.3,0,0.4-0.1C419.2,38.7,419.3,38.6,419.3,38.5z"/>
</g>
<g>
	<path class="st8" d="M431.6,36.1l0.8,2.3l0.8-2.3h0.9v3.2h-0.7v-0.9l0.1-1.5l-0.9,2.4h-0.5l-0.9-2.4l0.1,1.5v0.9h-0.6v-3.2H431.6z"
		/>
</g>
<g>
	<path class="st8" d="M447.8,36.7h-1v2.6h-0.6v-2.6h-1v-0.5h2.6L447.8,36.7L447.8,36.7z"/>
</g>
<g>
	<path class="st8" d="M461,38.4l0.4-2.3h0.6l-0.7,3.2h-0.7l-0.5-2.1l-0.5,2.1H459l-0.7-3.2h0.6l0.4,2.3l0.5-2.3h0.5L461,38.4z"/>
</g>
<g>
	<path class="st8" d="M474,38.2h-0.5v1.2h-0.6v-3.2h1.2c0.4,0,0.7,0.1,0.9,0.2c0.2,0.2,0.3,0.4,0.3,0.7c0,0.2,0,0.4-0.1,0.5
		c-0.1,0.1-0.2,0.3-0.4,0.4l0.7,1.3v0h-0.7L474,38.2z M473.4,37.6h0.5c0.2,0,0.3,0,0.4-0.1c0.1-0.1,0.1-0.2,0.1-0.4
		c0-0.1,0-0.3-0.1-0.3c-0.1-0.1-0.2-0.1-0.4-0.1h-0.5V37.6z"/>
</g>
<g>
	<path class="st8" d="M488.6,38h-1.3v1.3h-0.6v-3.2h2.1v0.5h-1.4v0.8h1.3L488.6,38L488.6,38z"/>
</g>
<g>
	<path class="st8" d="M502.4,38.5c0-0.1,0-0.2-0.1-0.3s-0.2-0.1-0.5-0.2s-0.4-0.2-0.5-0.2c-0.4-0.2-0.5-0.5-0.5-0.8
		c0-0.2,0-0.3,0.1-0.5s0.2-0.2,0.4-0.3c0.2-0.1,0.4-0.1,0.6-0.1c0.2,0,0.4,0,0.6,0.1c0.2,0.1,0.3,0.2,0.4,0.3
		c0.1,0.2,0.1,0.3,0.1,0.5h-0.6c0-0.2,0-0.3-0.1-0.3c-0.1-0.1-0.2-0.1-0.4-0.1c-0.2,0-0.3,0-0.4,0.1s-0.1,0.2-0.1,0.3
		c0,0.1,0,0.2,0.2,0.3c0.1,0.1,0.3,0.1,0.5,0.2c0.4,0.1,0.6,0.2,0.8,0.4c0.2,0.2,0.3,0.4,0.3,0.6c0,0.3-0.1,0.5-0.3,0.6
		c-0.2,0.2-0.5,0.2-0.8,0.2c-0.2,0-0.5,0-0.7-0.1s-0.4-0.2-0.5-0.4c-0.1-0.2-0.2-0.3-0.2-0.5h0.7c0,0.3,0.2,0.5,0.6,0.5
		c0.2,0,0.3,0,0.4-0.1C502.3,38.7,502.4,38.6,502.4,38.5z"/>
</g>
<g>
	<path class="st8" d="M518.2,38.5c0-0.1,0-0.2-0.1-0.3s-0.2-0.1-0.5-0.2s-0.4-0.2-0.5-0.2c-0.4-0.2-0.5-0.5-0.5-0.8
		c0-0.2,0-0.3,0.2-0.5c0.1-0.1,0.2-0.2,0.4-0.3s0.4-0.1,0.6-0.1s0.4,0,0.6,0.1c0.2,0.1,0.3,0.2,0.4,0.3c0.1,0.2,0.2,0.3,0.2,0.5
		h-0.7c0-0.2,0-0.3-0.1-0.3c-0.1-0.1-0.2-0.1-0.4-0.1c-0.2,0-0.3,0-0.4,0.1c-0.1,0.1-0.1,0.2-0.1,0.3c0,0.1,0,0.2,0.2,0.3
		c0.1,0.1,0.3,0.1,0.5,0.2c0.4,0.1,0.6,0.2,0.8,0.4c0.2,0.2,0.3,0.4,0.3,0.6c0,0.3-0.1,0.5-0.3,0.6c-0.2,0.2-0.5,0.2-0.8,0.2
		c-0.2,0-0.5,0-0.7-0.1s-0.3-0.2-0.5-0.4c-0.1-0.2-0.2-0.3-0.2-0.5h0.7c0,0.3,0.2,0.5,0.6,0.5c0.2,0,0.3,0,0.4-0.1
		C518.1,38.7,518.2,38.6,518.2,38.5z"/>
</g>
<g>
	<path class="st8" d="M530.5,36.1l0.8,2.3l0.8-2.3h0.9v3.2h-0.7v-0.9l0.1-1.5l-0.9,2.4h-0.5l-0.9-2.4l0.1,1.5v0.9h-0.7v-3.2H530.5z"
		/>
</g>
<g>
	<path class="st8" d="M546.7,36.7h-1v2.6h-0.7v-2.6h-1v-0.5h2.6L546.7,36.7L546.7,36.7z"/>
</g>
<g>
	<path class="st8" d="M559.9,38.4l0.4-2.3h0.7l-0.7,3.2h-0.7l-0.5-2.1l-0.5,2.1h-0.7l-0.7-3.2h0.7l0.4,2.3l0.5-2.3h0.5L559.9,38.4z"
		/>
</g>
<g>
	<path class="st8" d="M572.8,38.2h-0.5v1.2h-0.7v-3.2h1.2c0.4,0,0.7,0.1,0.9,0.2c0.2,0.2,0.3,0.4,0.3,0.7c0,0.2,0,0.4-0.1,0.5
		c-0.1,0.1-0.2,0.3-0.4,0.4l0.7,1.3v0h-0.7L572.8,38.2z M572.3,37.6h0.5c0.2,0,0.3,0,0.4-0.1c0.1-0.1,0.1-0.2,0.1-0.4
		c0-0.1,0-0.3-0.1-0.3c-0.1-0.1-0.2-0.1-0.4-0.1h-0.5V37.6z"/>
</g>
<g>
	<path class="st8" d="M587.5,38h-1.3v1.3h-0.7v-3.2h2.1v0.5h-1.4v0.8h1.3L587.5,38L587.5,38z"/>
</g>
<g>
	<path class="st8" d="M601.3,38.5c0-0.1,0-0.2-0.1-0.3s-0.2-0.1-0.5-0.2s-0.4-0.2-0.5-0.2c-0.4-0.2-0.5-0.5-0.5-0.8
		c0-0.2,0-0.3,0.2-0.5s0.2-0.2,0.4-0.3s0.4-0.1,0.6-0.1s0.4,0,0.6,0.1c0.2,0.1,0.3,0.2,0.4,0.3c0.1,0.2,0.2,0.3,0.2,0.5h-0.7
		c0-0.2,0-0.3-0.1-0.3c-0.1-0.1-0.2-0.1-0.4-0.1c-0.2,0-0.3,0-0.4,0.1c-0.1,0.1-0.1,0.2-0.1,0.3c0,0.1,0,0.2,0.2,0.3
		c0.1,0.1,0.3,0.1,0.5,0.2c0.4,0.1,0.6,0.2,0.8,0.4c0.2,0.2,0.3,0.4,0.3,0.6c0,0.3-0.1,0.5-0.3,0.6c-0.2,0.2-0.5,0.2-0.8,0.2
		c-0.2,0-0.5,0-0.7-0.1s-0.3-0.2-0.5-0.4c-0.1-0.2-0.2-0.3-0.2-0.5h0.7c0,0.3,0.2,0.5,0.6,0.5c0.2,0,0.3,0,0.4-0.1
		C601.2,38.7,601.3,38.6,601.3,38.5z"/>
</g>
<g>
	<path class="st8" d="M617.1,38.5c0-0.1,0-0.2-0.1-0.3s-0.2-0.1-0.5-0.2s-0.4-0.2-0.5-0.2c-0.4-0.2-0.5-0.5-0.5-0.8
		c0-0.2,0-0.3,0.2-0.5c0.1-0.1,0.2-0.2,0.4-0.3s0.4-0.1,0.6-0.1s0.4,0,0.6,0.1c0.2,0.1,0.3,0.2,0.4,0.3c0.1,0.2,0.2,0.3,0.2,0.5
		h-0.7c0-0.2,0-0.3-0.1-0.3c-0.1-0.1-0.2-0.1-0.4-0.1c-0.2,0-0.3,0-0.4,0.1c-0.1,0.1-0.1,0.2-0.1,0.3c0,0.1,0,0.2,0.2,0.3
		s0.3,0.1,0.5,0.2c0.4,0.1,0.6,0.2,0.8,0.4c0.2,0.2,0.3,0.4,0.3,0.6c0,0.3-0.1,0.5-0.3,0.6c-0.2,0.2-0.5,0.2-0.8,0.2
		c-0.2,0-0.5,0-0.7-0.1s-0.3-0.2-0.5-0.4c-0.1-0.2-0.2-0.3-0.2-0.5h0.7c0,0.3,0.2,0.5,0.6,0.5c0.2,0,0.3,0,0.4-0.1
		C617,38.7,617.1,38.6,617.1,38.5z"/>
</g>
<g>
	<path class="st8" d="M629.4,36.1l0.8,2.3l0.8-2.3h0.9v3.2h-0.7v-0.9l0.1-1.5l-0.9,2.4H630l-0.9-2.4l0.1,1.5v0.9h-0.7v-3.2H629.4z"
		/>
</g>
<g>
	<path class="st8" d="M645.6,36.7h-1v2.6H644v-2.6h-1v-0.5h2.6L645.6,36.7L645.6,36.7z"/>
</g>
<g>
	<path class="st8" d="M658.8,38.4l0.4-2.3h0.7l-0.7,3.2h-0.7l-0.5-2.1l-0.5,2.1h-0.7l-0.7-3.2h0.7l0.4,2.3l0.5-2.3h0.5L658.8,38.4z"
		/>
</g>
<g>
	<path class="st8" d="M671.7,38.2h-0.5v1.2h-0.7v-3.2h1.2c0.4,0,0.7,0.1,0.9,0.2c0.2,0.2,0.3,0.4,0.3,0.7c0,0.2,0,0.4-0.1,0.5
		c-0.1,0.1-0.2,0.3-0.4,0.4l0.7,1.3v0h-0.7L671.7,38.2z M671.2,37.6h0.5c0.2,0,0.3,0,0.4-0.1c0.1-0.1,0.1-0.2,0.1-0.4
		c0-0.1,0-0.3-0.1-0.3c-0.1-0.1-0.2-0.1-0.4-0.1h-0.5V37.6z"/>
</g>
<g>
	<path class="st8" d="M686.4,38h-1.3v1.3h-0.7v-3.2h2.1v0.5h-1.4v0.8h1.3L686.4,38L686.4,38z"/>
</g>
<g>
	<path class="st8" d="M700.2,38.5c0-0.1,0-0.2-0.1-0.3s-0.2-0.1-0.5-0.2s-0.4-0.2-0.5-0.2c-0.4-0.2-0.5-0.5-0.5-0.8
		c0-0.2,0-0.3,0.2-0.5s0.2-0.2,0.4-0.3s0.4-0.1,0.6-0.1s0.4,0,0.6,0.1c0.2,0.1,0.3,0.2,0.4,0.3c0.1,0.2,0.2,0.3,0.2,0.5h-0.7
		c0-0.2,0-0.3-0.1-0.3c-0.1-0.1-0.2-0.1-0.4-0.1c-0.2,0-0.3,0-0.4,0.1c-0.1,0.1-0.1,0.2-0.1,0.3c0,0.1,0,0.2,0.2,0.3
		s0.3,0.1,0.5,0.2c0.4,0.1,0.6,0.2,0.8,0.4c0.2,0.2,0.3,0.4,0.3,0.6c0,0.3-0.1,0.5-0.3,0.6c-0.2,0.2-0.5,0.2-0.8,0.2
		c-0.2,0-0.5,0-0.7-0.1s-0.3-0.2-0.5-0.4c-0.1-0.2-0.2-0.3-0.2-0.5h0.7c0,0.3,0.2,0.5,0.6,0.5c0.2,0,0.3,0,0.4-0.1
		C700.1,38.7,700.2,38.6,700.2,38.5z"/>
</g>
<g>
	<path class="st8" d="M716,38.5c0-0.1,0-0.2-0.1-0.3s-0.2-0.1-0.5-0.2s-0.4-0.2-0.5-0.2c-0.4-0.2-0.5-0.5-0.5-0.8
		c0-0.2,0-0.3,0.2-0.5c0.1-0.1,0.2-0.2,0.4-0.3s0.4-0.1,0.6-0.1s0.4,0,0.6,0.1c0.2,0.1,0.3,0.2,0.4,0.3c0.1,0.2,0.2,0.3,0.2,0.5H716
		c0-0.2,0-0.3-0.1-0.3c-0.1-0.1-0.2-0.1-0.4-0.1c-0.2,0-0.3,0-0.4,0.1c-0.1,0.1-0.1,0.2-0.1,0.3c0,0.1,0,0.2,0.2,0.3
		s0.3,0.1,0.5,0.2c0.4,0.1,0.6,0.2,0.8,0.4c0.2,0.2,0.3,0.4,0.3,0.6c0,0.3-0.1,0.5-0.3,0.6c-0.2,0.2-0.5,0.2-0.8,0.2
		c-0.2,0-0.5,0-0.7-0.1s-0.3-0.2-0.5-0.4c-0.1-0.2-0.2-0.3-0.2-0.5h0.7c0,0.3,0.2,0.5,0.6,0.5c0.2,0,0.3,0,0.4-0.1
		C715.9,38.7,716,38.6,716,38.5z"/>
</g>
<g>
	<path class="st8" d="M728.3,36.1l0.8,2.3l0.8-2.3h0.9v3.2h-0.7v-0.9l0.1-1.5l-0.9,2.4h-0.5L728,37l0.1,1.5v0.9h-0.7v-3.2H728.3z"/>
</g>
<g>
	<path class="st8" d="M744.5,36.7h-1v2.6h-0.7v-2.6h-1v-0.5h2.6L744.5,36.7L744.5,36.7z"/>
</g>
<g>
	<path class="st8" d="M757.7,38.4l0.4-2.3h0.7l-0.7,3.2h-0.7l-0.5-2.1l-0.5,2.1h-0.7l-0.7-3.2h0.7l0.4,2.3l0.5-2.3h0.5L757.7,38.4z"
		/>
</g>
<g>
	<path class="st8" d="M770.6,38.2h-0.5v1.2h-0.7v-3.2h1.2c0.4,0,0.7,0.1,0.9,0.2c0.2,0.2,0.3,0.4,0.3,0.7c0,0.2,0,0.4-0.1,0.5
		c-0.1,0.1-0.2,0.3-0.4,0.4l0.7,1.3v0h-0.7L770.6,38.2z M770.1,37.6h0.5c0.2,0,0.3,0,0.4-0.1c0.1-0.1,0.1-0.2,0.1-0.4
		c0-0.1,0-0.3-0.1-0.3c-0.1-0.1-0.2-0.1-0.4-0.1h-0.5V37.6z"/>
</g>
<g>
	<path class="st8" d="M785.2,38H784v1.3h-0.7v-3.2h2.1v0.5H784v0.8h1.3L785.2,38L785.2,38z"/>
</g>
<g>
	<path class="st8" d="M799.1,38.5c0-0.1,0-0.2-0.1-0.3s-0.2-0.1-0.5-0.2s-0.4-0.2-0.5-0.2c-0.4-0.2-0.5-0.5-0.5-0.8
		c0-0.2,0-0.3,0.2-0.5c0.1-0.1,0.2-0.2,0.4-0.3s0.4-0.1,0.6-0.1s0.4,0,0.6,0.1c0.2,0.1,0.3,0.2,0.4,0.3c0.1,0.2,0.2,0.3,0.2,0.5
		h-0.7c0-0.2,0-0.3-0.1-0.3c-0.1-0.1-0.2-0.1-0.4-0.1c-0.2,0-0.3,0-0.4,0.1c-0.1,0.1-0.1,0.2-0.1,0.3c0,0.1,0,0.2,0.2,0.3
		c0.1,0.1,0.3,0.1,0.5,0.2c0.4,0.1,0.6,0.2,0.8,0.4c0.2,0.2,0.3,0.4,0.3,0.6c0,0.3-0.1,0.5-0.3,0.6c-0.2,0.2-0.5,0.2-0.8,0.2
		c-0.2,0-0.5,0-0.7-0.1s-0.3-0.2-0.5-0.4c-0.1-0.2-0.2-0.3-0.2-0.5h0.7c0,0.3,0.2,0.5,0.6,0.5c0.2,0,0.3,0,0.4-0.1
		C799,38.7,799.1,38.6,799.1,38.5z"/>
</g>
<g>
	<path class="st2" d="M814.9,38.5c0-0.1,0-0.2-0.1-0.3s-0.2-0.1-0.5-0.2s-0.4-0.2-0.5-0.2c-0.4-0.2-0.5-0.5-0.5-0.8
		c0-0.2,0-0.3,0.2-0.5c0.1-0.1,0.2-0.2,0.4-0.3s0.4-0.1,0.6-0.1s0.4,0,0.6,0.1c0.2,0.1,0.3,0.2,0.4,0.3c0.1,0.2,0.2,0.3,0.2,0.5
		h-0.7c0-0.2,0-0.3-0.1-0.3c-0.1-0.1-0.2-0.1-0.4-0.1c-0.2,0-0.3,0-0.4,0.1c-0.1,0.1-0.1,0.2-0.1,0.3c0,0.1,0,0.2,0.2,0.3
		s0.3,0.1,0.5,0.2c0.4,0.1,0.6,0.2,0.8,0.4c0.2,0.2,0.3,0.4,0.3,0.6c0,0.3-0.1,0.5-0.3,0.6c-0.2,0.2-0.5,0.2-0.8,0.2
		c-0.2,0-0.5,0-0.7-0.1s-0.3-0.2-0.5-0.4c-0.1-0.2-0.2-0.3-0.2-0.5h0.7c0,0.3,0.2,0.5,0.6,0.5c0.2,0,0.3,0,0.4-0.1
		C814.8,38.7,814.9,38.6,814.9,38.5z"/>
</g>
<g>
	<path class="st8" d="M827.2,36.1l0.8,2.3l0.8-2.3h0.9v3.2H829v-0.9l0.1-1.5l-0.9,2.4h-0.5l-0.9-2.4l0.1,1.5v0.9h-0.7v-3.2H827.2z"
		/>
</g>
<g>
	<path class="st8" d="M843.4,36.7h-1v2.6h-0.7v-2.6h-1v-0.5h2.6L843.4,36.7L843.4,36.7z"/>
</g>
<g>
	<path class="st8" d="M856.6,38.4l0.4-2.3h0.7l-0.7,3.2h-0.7l-0.5-2.1l-0.5,2.1h-0.7l-0.7-3.2h0.7l0.4,2.3l0.5-2.3h0.5L856.6,38.4z"
		/>
</g>
<g>
	<path class="st8" d="M869.5,38.2H869v1.2h-0.7v-3.2h1.2c0.4,0,0.7,0.1,0.9,0.2c0.2,0.2,0.3,0.4,0.3,0.7c0,0.2,0,0.4-0.1,0.5
		c-0.1,0.1-0.2,0.3-0.4,0.4l0.7,1.3v0h-0.7L869.5,38.2z M869,37.6h0.5c0.2,0,0.3,0,0.4-0.1c0.1-0.1,0.1-0.2,0.1-0.4
		c0-0.1,0-0.3-0.1-0.3c-0.1-0.1-0.2-0.1-0.4-0.1H869V37.6z"/>
</g>
<g>
	<path class="st8" d="M884.2,38h-1.3v1.3h-0.7v-3.2h2.1v0.5h-1.4v0.8h1.3L884.2,38L884.2,38z"/>
</g>
<g>
	<path class="st8" d="M898,38.5c0-0.1,0-0.2-0.1-0.3s-0.2-0.1-0.5-0.2s-0.4-0.2-0.5-0.2c-0.4-0.2-0.5-0.5-0.5-0.8
		c0-0.2,0-0.3,0.2-0.5s0.2-0.2,0.4-0.3s0.4-0.1,0.6-0.1s0.4,0,0.6,0.1c0.2,0.1,0.3,0.2,0.4,0.3c0.1,0.2,0.2,0.3,0.2,0.5H898
		c0-0.2,0-0.3-0.1-0.3c-0.1-0.1-0.2-0.1-0.4-0.1c-0.2,0-0.3,0-0.4,0.1c-0.1,0.1-0.1,0.2-0.1,0.3c0,0.1,0,0.2,0.2,0.3
		s0.3,0.1,0.5,0.2c0.4,0.1,0.6,0.2,0.8,0.4c0.2,0.2,0.3,0.4,0.3,0.6c0,0.3-0.1,0.5-0.3,0.6c-0.2,0.2-0.5,0.2-0.8,0.2
		c-0.2,0-0.5,0-0.7-0.1s-0.3-0.2-0.5-0.4c-0.1-0.2-0.2-0.3-0.2-0.5h0.7c0,0.3,0.2,0.5,0.6,0.5c0.2,0,0.3,0,0.4-0.1
		C897.9,38.7,898,38.6,898,38.5z"/>
</g>
<g>
	<path class="st8" d="M913.8,38.5c0-0.1,0-0.2-0.1-0.3s-0.2-0.1-0.5-0.2s-0.4-0.2-0.5-0.2c-0.4-0.2-0.5-0.5-0.5-0.8
		c0-0.2,0-0.3,0.2-0.5c0.1-0.1,0.2-0.2,0.4-0.3s0.4-0.1,0.6-0.1s0.4,0,0.6,0.1c0.2,0.1,0.3,0.2,0.4,0.3c0.1,0.2,0.2,0.3,0.2,0.5
		h-0.7c0-0.2,0-0.3-0.1-0.3c-0.1-0.1-0.2-0.1-0.4-0.1c-0.2,0-0.3,0-0.4,0.1c-0.1,0.1-0.1,0.2-0.1,0.3c0,0.1,0,0.2,0.2,0.3
		c0.1,0.1,0.3,0.1,0.5,0.2c0.4,0.1,0.6,0.2,0.8,0.4c0.2,0.2,0.3,0.4,0.3,0.6c0,0.3-0.1,0.5-0.3,0.6c-0.2,0.2-0.5,0.2-0.8,0.2
		c-0.2,0-0.5,0-0.7-0.1s-0.3-0.2-0.5-0.4c-0.1-0.2-0.2-0.3-0.2-0.5h0.7c0,0.3,0.2,0.5,0.6,0.5c0.2,0,0.3,0,0.4-0.1
		C913.7,38.7,913.8,38.6,913.8,38.5z"/>
</g>
<g>
	<path class="st8" d="M926.1,36.1l0.8,2.3l0.8-2.3h0.9v3.2H928v-0.9L928,37l-0.9,2.4h-0.5l-0.9-2.4l0.1,1.5v0.9h-0.7v-3.2H926.1z"/>
</g>
<g>
	<path class="st8" d="M942.3,36.7h-1v2.6h-0.7v-2.6h-1v-0.5h2.6L942.3,36.7L942.3,36.7z"/>
</g>
<g>
	<path class="st8" d="M955.5,38.4l0.4-2.3h0.7l-0.7,3.2h-0.7l-0.5-2.1l-0.5,2.1h-0.7l-0.7-3.2h0.7l0.4,2.3l0.5-2.3h0.5L955.5,38.4z"
		/>
</g>
<g>
	<path class="st8" d="M968.4,38.2h-0.5v1.2h-0.7v-3.2h1.2c0.4,0,0.7,0.1,0.9,0.2c0.2,0.2,0.3,0.4,0.3,0.7c0,0.2,0,0.4-0.1,0.5
		c-0.1,0.1-0.2,0.3-0.4,0.4l0.7,1.3v0H969L968.4,38.2z M967.9,37.6h0.5c0.2,0,0.3,0,0.4-0.1c0.1-0.1,0.1-0.2,0.1-0.4
		c0-0.1,0-0.3-0.1-0.3c-0.1-0.1-0.2-0.1-0.4-0.1h-0.5V37.6z"/>
</g>
<g>
	<path class="st8" d="M983,38h-1.3v1.3h-0.7v-3.2h2.1v0.5h-1.4v0.8h1.3L983,38L983,38z"/>
</g>
<g>
	<path class="st8" d="M996.9,38.5c0-0.1,0-0.2-0.1-0.3s-0.2-0.1-0.5-0.2s-0.4-0.2-0.5-0.2c-0.4-0.2-0.5-0.5-0.5-0.8
		c0-0.2,0-0.3,0.2-0.5c0.1-0.1,0.2-0.2,0.4-0.3s0.4-0.1,0.6-0.1s0.4,0,0.6,0.1c0.2,0.1,0.3,0.2,0.4,0.3c0.1,0.2,0.2,0.3,0.2,0.5
		h-0.7c0-0.2,0-0.3-0.1-0.3c-0.1-0.1-0.2-0.1-0.4-0.1c-0.2,0-0.3,0-0.4,0.1c-0.1,0.1-0.1,0.2-0.1,0.3c0,0.1,0,0.2,0.2,0.3
		c0.1,0.1,0.3,0.1,0.5,0.2c0.4,0.1,0.6,0.2,0.8,0.4c0.2,0.2,0.3,0.4,0.3,0.6c0,0.3-0.1,0.5-0.3,0.6c-0.2,0.2-0.5,0.2-0.8,0.2
		c-0.2,0-0.5,0-0.7-0.1s-0.3-0.2-0.5-0.4c-0.1-0.2-0.2-0.3-0.2-0.5h0.7c0,0.3,0.2,0.5,0.6,0.5c0.2,0,0.3,0,0.4-0.1
		C996.8,38.7,996.9,38.6,996.9,38.5z"/>
</g>
<g>
	<path class="st8" d="M1012.7,38.5c0-0.1,0-0.2-0.1-0.3s-0.2-0.1-0.5-0.2s-0.4-0.2-0.5-0.2c-0.4-0.2-0.5-0.5-0.5-0.8
		c0-0.2,0-0.3,0.2-0.5c0.1-0.1,0.2-0.2,0.4-0.3s0.4-0.1,0.6-0.1s0.4,0,0.6,0.1c0.2,0.1,0.3,0.2,0.4,0.3c0.1,0.2,0.2,0.3,0.2,0.5
		h-0.7c0-0.2,0-0.3-0.1-0.3c-0.1-0.1-0.2-0.1-0.4-0.1c-0.2,0-0.3,0-0.4,0.1c-0.1,0.1-0.1,0.2-0.1,0.3c0,0.1,0,0.2,0.2,0.3
		s0.3,0.1,0.5,0.2c0.4,0.1,0.6,0.2,0.8,0.4c0.2,0.2,0.3,0.4,0.3,0.6c0,0.3-0.1,0.5-0.3,0.6c-0.2,0.2-0.5,0.2-0.8,0.2
		c-0.2,0-0.5,0-0.7-0.1s-0.3-0.2-0.5-0.4c-0.1-0.2-0.2-0.3-0.2-0.5h0.7c0,0.3,0.2,0.5,0.6,0.5c0.2,0,0.3,0,0.4-0.1
		C1012.6,38.7,1012.7,38.6,1012.7,38.5z"/>
</g>
<g>
	<path class="st8" d="M1025,36.1l0.8,2.3l0.8-2.3h0.9v3.2h-0.7v-0.9l0.1-1.5l-0.9,2.4h-0.4l-0.9-2.4l0.1,1.5v0.9h-0.7v-3.2H1025z"/>
</g>
<g>
	<path class="st8" d="M1041.2,36.7h-1v2.6h-0.7v-2.6h-1v-0.5h2.6L1041.2,36.7L1041.2,36.7z"/>
</g>
<g>
	<path class="st8" d="M1054.4,38.4l0.4-2.3h0.7l-0.7,3.2h-0.7l-0.5-2.1l-0.5,2.1h-0.7l-0.7-3.2h0.7l0.4,2.3l0.5-2.3h0.6L1054.4,38.4
		z"/>
</g>
<g>
	<path class="st8" d="M1067.3,38.2h-0.5v1.2h-0.7v-3.2h1.2c0.4,0,0.7,0.1,0.9,0.2c0.2,0.2,0.3,0.4,0.3,0.7c0,0.2-0.1,0.4-0.1,0.5
		c-0.1,0.1-0.2,0.3-0.4,0.4l0.7,1.3v0h-0.7L1067.3,38.2z M1066.8,37.6h0.5c0.2,0,0.3,0,0.4-0.1c0.1-0.1,0.1-0.2,0.1-0.4
		c0-0.1,0-0.3-0.1-0.3c-0.1-0.1-0.2-0.1-0.4-0.1h-0.5V37.6z"/>
</g>
<g>
	<path class="st8" d="M1081.9,38h-1.3v1.3h-0.7v-3.2h2.1v0.5h-1.4v0.8h1.3L1081.9,38L1081.9,38z"/>
</g>
<g>
	<path class="st8" d="M1095.8,38.5c0-0.1,0-0.2-0.1-0.3s-0.2-0.1-0.5-0.2s-0.4-0.2-0.5-0.2c-0.4-0.2-0.5-0.5-0.5-0.8
		c0-0.2,0.1-0.3,0.2-0.5s0.2-0.2,0.4-0.3s0.4-0.1,0.6-0.1s0.4,0,0.6,0.1c0.2,0.1,0.3,0.2,0.4,0.3c0.1,0.2,0.2,0.3,0.2,0.5h-0.7
		c0-0.2-0.1-0.3-0.1-0.3c-0.1-0.1-0.2-0.1-0.4-0.1c-0.2,0-0.3,0-0.4,0.1s-0.1,0.2-0.1,0.3c0,0.1,0.1,0.2,0.2,0.3s0.3,0.1,0.5,0.2
		c0.4,0.1,0.6,0.2,0.8,0.4c0.2,0.2,0.3,0.4,0.3,0.6c0,0.3-0.1,0.5-0.3,0.6c-0.2,0.2-0.5,0.2-0.8,0.2c-0.2,0-0.5,0-0.7-0.1
		c-0.2-0.1-0.3-0.2-0.5-0.4c-0.1-0.2-0.2-0.3-0.2-0.5h0.7c0,0.3,0.2,0.5,0.6,0.5c0.2,0,0.3,0,0.4-0.1
		C1095.7,38.7,1095.8,38.6,1095.8,38.5z"/>
</g>
<g>
	<path class="st8" d="M1111.6,38.5c0-0.1,0-0.2-0.1-0.3s-0.2-0.1-0.5-0.2s-0.4-0.2-0.5-0.2c-0.4-0.2-0.5-0.5-0.5-0.8
		c0-0.2,0.1-0.3,0.2-0.5s0.2-0.2,0.4-0.3s0.4-0.1,0.6-0.1s0.4,0,0.6,0.1c0.2,0.1,0.3,0.2,0.4,0.3c0.1,0.2,0.2,0.3,0.2,0.5h-0.7
		c0-0.2-0.1-0.3-0.1-0.3c-0.1-0.1-0.2-0.1-0.4-0.1c-0.2,0-0.3,0-0.4,0.1s-0.1,0.2-0.1,0.3c0,0.1,0.1,0.2,0.2,0.3
		c0.1,0.1,0.3,0.1,0.5,0.2c0.4,0.1,0.6,0.2,0.8,0.4c0.2,0.2,0.3,0.4,0.3,0.6c0,0.3-0.1,0.5-0.3,0.6c-0.2,0.2-0.5,0.2-0.8,0.2
		c-0.2,0-0.5,0-0.7-0.1c-0.2-0.1-0.3-0.2-0.5-0.4c-0.1-0.2-0.2-0.3-0.2-0.5h0.7c0,0.3,0.2,0.5,0.6,0.5c0.2,0,0.3,0,0.4-0.1
		C1111.5,38.7,1111.6,38.6,1111.6,38.5z"/>
</g>
<g>
	<path class="st8" d="M1123.9,36.1l0.8,2.3l0.8-2.3h0.9v3.2h-0.7v-0.9l0.1-1.5l-0.9,2.4h-0.4l-0.9-2.4l0.1,1.5v0.9h-0.7v-3.2H1123.9
		z"/>
</g>
<g>
	<path class="st8" d="M1140.1,36.7h-1v2.6h-0.7v-2.6h-1v-0.5h2.6L1140.1,36.7L1140.1,36.7z"/>
</g>
<g>
	<path class="st8" d="M1153.3,38.4l0.4-2.3h0.7l-0.7,3.2h-0.7l-0.5-2.1l-0.5,2.1h-0.7l-0.7-3.2h0.7l0.4,2.3l0.5-2.3h0.6L1153.3,38.4
		z"/>
</g>
<g>
	<path class="st8" d="M1166.2,38.2h-0.5v1.2h-0.7v-3.2h1.2c0.4,0,0.7,0.1,0.9,0.2c0.2,0.2,0.3,0.4,0.3,0.7c0,0.2-0.1,0.4-0.1,0.5
		c-0.1,0.1-0.2,0.3-0.4,0.4l0.7,1.3v0h-0.7L1166.2,38.2z M1165.7,37.6h0.5c0.2,0,0.3,0,0.4-0.1c0.1-0.1,0.1-0.2,0.1-0.4
		c0-0.1,0-0.3-0.1-0.3c-0.1-0.1-0.2-0.1-0.4-0.1h-0.5V37.6z"/>
</g>
<g>
	<path class="st8" d="M1180.8,38h-1.3v1.3h-0.7v-3.2h2.1v0.5h-1.4v0.8h1.3L1180.8,38L1180.8,38z"/>
</g>
<g>
	<path class="st8" d="M1194.7,38.5c0-0.1,0-0.2-0.1-0.3s-0.2-0.1-0.5-0.2s-0.4-0.2-0.5-0.2c-0.4-0.2-0.5-0.5-0.5-0.8
		c0-0.2,0.1-0.3,0.2-0.5s0.2-0.2,0.4-0.3s0.4-0.1,0.6-0.1s0.4,0,0.6,0.1c0.2,0.1,0.3,0.2,0.4,0.3c0.1,0.2,0.2,0.3,0.2,0.5h-0.7
		c0-0.2-0.1-0.3-0.1-0.3c-0.1-0.1-0.2-0.1-0.4-0.1c-0.2,0-0.3,0-0.4,0.1s-0.1,0.2-0.1,0.3c0,0.1,0.1,0.2,0.2,0.3
		c0.1,0.1,0.3,0.1,0.5,0.2c0.4,0.1,0.6,0.2,0.8,0.4c0.2,0.2,0.3,0.4,0.3,0.6c0,0.3-0.1,0.5-0.3,0.6c-0.2,0.2-0.5,0.2-0.8,0.2
		c-0.2,0-0.5,0-0.7-0.1c-0.2-0.1-0.3-0.2-0.5-0.4c-0.1-0.2-0.2-0.3-0.2-0.5h0.7c0,0.3,0.2,0.5,0.6,0.5c0.2,0,0.3,0,0.4-0.1
		C1194.6,38.7,1194.7,38.6,1194.7,38.5z"/>
</g>
<g>
	<path class="st8" d="M1201.2,33.3h-4.5v-0.9l2.1-2.3c0.3-0.3,0.5-0.6,0.7-0.8s0.2-0.5,0.2-0.7c0-0.3-0.1-0.5-0.2-0.7
		s-0.4-0.2-0.6-0.2c-0.3,0-0.5,0.1-0.7,0.3c-0.2,0.2-0.3,0.5-0.3,0.8h-1.3c0-0.4,0.1-0.8,0.3-1.1c0.2-0.3,0.5-0.6,0.8-0.8
		c0.3-0.2,0.8-0.3,1.2-0.3c0.7,0,1.2,0.2,1.6,0.5c0.4,0.3,0.6,0.8,0.6,1.4c0,0.3-0.1,0.7-0.2,1s-0.5,0.7-0.9,1.2l-1.5,1.6h2.8V33.3z
		"/>
	<path class="st8" d="M1205.1,30.6c-0.3,0.3-0.7,0.5-1.2,0.5c-0.6,0-1.1-0.2-1.4-0.6s-0.5-0.9-0.5-1.6c0-0.4,0.1-0.8,0.3-1.2
		c0.2-0.4,0.4-0.6,0.8-0.9c0.3-0.2,0.7-0.3,1.1-0.3c0.4,0,0.8,0.1,1.2,0.3c0.3,0.2,0.6,0.5,0.8,0.9c0.2,0.4,0.3,0.9,0.3,1.4v0.5
		c0,1.1-0.3,2-0.8,2.6c-0.6,0.6-1.3,1-2.3,1h-0.3v-1.1h0.3C1204.3,32.2,1205,31.6,1205.1,30.6z M1204.2,30.1c0.2,0,0.4,0,0.6-0.2
		c0.2-0.1,0.3-0.2,0.3-0.4V29c0-0.5-0.1-0.8-0.2-1c-0.2-0.2-0.4-0.4-0.7-0.4c-0.3,0-0.5,0.1-0.7,0.4s-0.2,0.5-0.2,0.9
		c0,0.4,0.1,0.7,0.2,0.9C1203.6,30,1203.9,30.1,1204.2,30.1z"/>
</g>
<g>
	<path class="st8" d="M1210.5,38.5c0-0.1,0-0.2-0.1-0.3s-0.2-0.1-0.5-0.2s-0.4-0.2-0.5-0.2c-0.4-0.2-0.5-0.5-0.5-0.8
		c0-0.2,0.1-0.3,0.2-0.5s0.2-0.2,0.4-0.3s0.4-0.1,0.6-0.1s0.4,0,0.6,0.1c0.2,0.1,0.3,0.2,0.4,0.3c0.1,0.2,0.2,0.3,0.2,0.5h-0.7
		c0-0.2-0.1-0.3-0.1-0.3c-0.1-0.1-0.2-0.1-0.4-0.1c-0.2,0-0.3,0-0.4,0.1s-0.1,0.2-0.1,0.3c0,0.1,0.1,0.2,0.2,0.3
		c0.1,0.1,0.3,0.1,0.5,0.2c0.4,0.1,0.6,0.2,0.8,0.4c0.2,0.2,0.3,0.4,0.3,0.6c0,0.3-0.1,0.5-0.3,0.6c-0.2,0.2-0.5,0.2-0.8,0.2
		c-0.2,0-0.5,0-0.7-0.1c-0.2-0.1-0.3-0.2-0.5-0.4c-0.1-0.2-0.2-0.3-0.2-0.5h0.7c0,0.3,0.2,0.5,0.6,0.5c0.2,0,0.3,0,0.4-0.1
		C1210.4,38.7,1210.5,38.6,1210.5,38.5z"/>
</g>
<g>
	<path class="st8" d="M1222.8,36.1l0.8,2.3l0.8-2.3h0.9v3.2h-0.7v-0.9l0.1-1.5l-0.9,2.4h-0.4l-0.9-2.4l0.1,1.5v0.9h-0.7v-3.2H1222.8
		z"/>
</g>
<g>
	<path class="st8" d="M1239,36.7h-1v2.6h-0.7v-2.6h-1v-0.5h2.6L1239,36.7L1239,36.7z"/>
</g>
<g>
	<path class="st8" d="M1252.2,38.4l0.4-2.3h0.7l-0.7,3.2h-0.7l-0.5-2.1l-0.5,2.1h-0.7l-0.7-3.2h0.7l0.4,2.3l0.5-2.3h0.6L1252.2,38.4
		z"/>
</g>
<g>
	<path class="st8" d="M1265.1,38.2h-0.5v1.2h-0.7v-3.2h1.2c0.4,0,0.7,0.1,0.9,0.2c0.2,0.2,0.3,0.4,0.3,0.7c0,0.2-0.1,0.4-0.1,0.5
		c-0.1,0.1-0.2,0.3-0.4,0.4l0.7,1.3v0h-0.7L1265.1,38.2z M1264.6,37.6h0.5c0.2,0,0.3,0,0.4-0.1c0.1-0.1,0.1-0.2,0.1-0.4
		c0-0.1,0-0.3-0.1-0.3c-0.1-0.1-0.2-0.1-0.4-0.1h-0.5V37.6z"/>
</g>
<g>
	<path class="st8" d="M1279.8,38h-1.3v1.3h-0.7v-3.2h2.1v0.5h-1.4v0.8h1.3L1279.8,38L1279.8,38z"/>
</g>
<g>
	<path class="st8" d="M1293.6,38.5c0-0.1,0-0.2-0.1-0.3s-0.2-0.1-0.5-0.2s-0.4-0.2-0.5-0.2c-0.4-0.2-0.5-0.5-0.5-0.8
		c0-0.2,0.1-0.3,0.2-0.5s0.2-0.2,0.4-0.3s0.4-0.1,0.6-0.1s0.4,0,0.6,0.1c0.2,0.1,0.3,0.2,0.4,0.3c0.1,0.2,0.2,0.3,0.2,0.5h-0.7
		c0-0.2-0.1-0.3-0.1-0.3c-0.1-0.1-0.2-0.1-0.4-0.1c-0.2,0-0.3,0-0.4,0.1s-0.1,0.2-0.1,0.3c0,0.1,0.1,0.2,0.2,0.3
		c0.1,0.1,0.3,0.1,0.5,0.2c0.4,0.1,0.6,0.2,0.8,0.4c0.2,0.2,0.3,0.4,0.3,0.6c0,0.3-0.1,0.5-0.3,0.6c-0.2,0.2-0.5,0.2-0.8,0.2
		c-0.2,0-0.5,0-0.7-0.1c-0.2-0.1-0.3-0.2-0.5-0.4c-0.1-0.2-0.2-0.3-0.2-0.5h0.7c0,0.3,0.2,0.5,0.6,0.5c0.2,0,0.3,0,0.4-0.1
		C1293.5,38.7,1293.6,38.6,1293.6,38.5z"/>
</g>
<g>
	<path class="st6" d="M15.9,5v2.5h-1.5V0.4h2.8c0.5,0,1,0.1,1.4,0.3s0.7,0.5,0.9,0.8s0.3,0.8,0.3,1.2c0,0.7-0.2,1.2-0.7,1.6
		S18,5,17.2,5H15.9z M15.9,3.8h1.3c0.4,0,0.7-0.1,0.9-0.3s0.3-0.4,0.3-0.8c0-0.3-0.1-0.6-0.3-0.8s-0.5-0.3-0.8-0.3h-1.3V3.8z"/>
	<path class="st6" d="M22.2,2.8c0.4-0.4,0.8-0.7,1.4-0.7c1.1,0,1.7,0.7,1.7,2v3.4h-1.4V4.2c0-0.3-0.1-0.5-0.2-0.7s-0.3-0.2-0.6-0.2
		c-0.4,0-0.7,0.2-0.9,0.5v3.8h-1.4V0h1.4V2.8z"/>
	<path class="st6" d="M29.4,7.5c-0.1-0.1-0.1-0.3-0.1-0.5C29,7.4,28.5,7.6,28,7.6c-0.5,0-0.9-0.1-1.3-0.4S26.2,6.5,26.2,6
		c0-0.6,0.2-1,0.6-1.3s1-0.5,1.8-0.5h0.6V4c0-0.2-0.1-0.4-0.2-0.6s-0.3-0.2-0.6-0.2c-0.2,0-0.4,0.1-0.6,0.2s-0.2,0.3-0.2,0.5h-1.4
		c0-0.3,0.1-0.6,0.3-0.8s0.5-0.5,0.8-0.6s0.7-0.2,1.2-0.2c0.7,0,1.2,0.2,1.6,0.5s0.6,0.8,0.6,1.4v2.3c0,0.5,0.1,0.9,0.2,1.1v0.1
		H29.4z M28.3,6.5c0.2,0,0.4,0,0.6-0.1s0.3-0.2,0.4-0.4V5.1h-0.5c-0.7,0-1.1,0.2-1.1,0.7l0,0.1c0,0.2,0.1,0.3,0.2,0.4
		S28.1,6.5,28.3,6.5z"/>
	<path class="st6" d="M34.6,6c0-0.2-0.1-0.3-0.3-0.4s-0.4-0.2-0.8-0.3c-1.3-0.3-1.9-0.8-1.9-1.6c0-0.5,0.2-0.9,0.6-1.2
		s0.9-0.5,1.5-0.5c0.7,0,1.2,0.2,1.6,0.5S36,3.3,36,3.8h-1.4c0-0.2-0.1-0.4-0.2-0.5S34,3.1,33.8,3.1c-0.2,0-0.4,0.1-0.6,0.2
		S33,3.5,33,3.7c0,0.2,0.1,0.3,0.2,0.4s0.4,0.2,0.7,0.2s0.6,0.1,0.9,0.2C35.6,4.8,36,5.3,36,6c0,0.5-0.2,0.9-0.6,1.2
		s-0.9,0.4-1.6,0.4c-0.4,0-0.8-0.1-1.2-0.2S32,7,31.8,6.7s-0.3-0.6-0.3-0.9h1.3c0,0.3,0.1,0.4,0.3,0.6s0.4,0.2,0.7,0.2
		c0.3,0,0.5-0.1,0.6-0.2S34.6,6.2,34.6,6z"/>
	<path class="st6" d="M39.3,7.6c-0.8,0-1.4-0.2-1.9-0.7S36.7,5.8,36.7,5V4.8c0-0.5,0.1-1,0.3-1.4s0.5-0.7,0.9-1s0.8-0.3,1.3-0.3
		c0.7,0,1.3,0.2,1.7,0.7s0.6,1.1,0.6,1.9v0.6h-3.4c0,0.3,0.2,0.6,0.4,0.8s0.5,0.3,0.9,0.3c0.5,0,1-0.2,1.3-0.6l0.7,0.8
		c-0.2,0.3-0.5,0.5-0.9,0.7S39.8,7.6,39.3,7.6z M39.2,3.3c-0.3,0-0.5,0.1-0.7,0.3c-0.2,0.2-0.3,0.5-0.3,0.8h2V4.2
		c0-0.3-0.1-0.6-0.3-0.7C39.7,3.3,39.5,3.3,39.2,3.3z"/>
	<path class="st6" d="M48.2,7.5h-1.4V2.1l-1.7,0.5V1.4L48,0.4h0.2V7.5z"/>
</g>
<g>
	<path class="st7" d="M53,5v2.5h-1.5V0.4h2.8c0.5,0,1,0.1,1.4,0.3s0.7,0.5,0.9,0.8S57,2.3,57,2.8c0,0.7-0.2,1.2-0.7,1.6
		S55.1,5,54.3,5H53z M53,3.8h1.3c0.4,0,0.7-0.1,0.9-0.3s0.3-0.4,0.3-0.8c0-0.3-0.1-0.6-0.3-0.8s-0.5-0.3-0.8-0.3H53V3.8z"/>
	<path class="st7" d="M59.3,2.8c0.4-0.4,0.8-0.7,1.4-0.7c1.1,0,1.7,0.7,1.7,2v3.4H61V4.2c0-0.3-0.1-0.5-0.2-0.7s-0.3-0.2-0.6-0.2
		c-0.4,0-0.7,0.2-0.9,0.5v3.8h-1.4V0h1.4V2.8z"/>
	<path class="st7" d="M66.5,7.5c-0.1-0.1-0.1-0.3-0.1-0.5c-0.3,0.4-0.8,0.6-1.3,0.6c-0.5,0-0.9-0.1-1.3-0.4s-0.5-0.7-0.5-1.1
		c0-0.6,0.2-1,0.6-1.3s1-0.5,1.8-0.5h0.6V4c0-0.2-0.1-0.4-0.2-0.6s-0.3-0.2-0.6-0.2c-0.2,0-0.4,0.1-0.6,0.2s-0.2,0.3-0.2,0.5h-1.4
		c0-0.3,0.1-0.6,0.3-0.8s0.5-0.5,0.8-0.6s0.7-0.2,1.2-0.2c0.7,0,1.2,0.2,1.6,0.5s0.6,0.8,0.6,1.4v2.3c0,0.5,0.1,0.9,0.2,1.1v0.1
		H66.5z M65.4,6.6c0.2,0,0.4,0,0.6-0.1s0.3-0.2,0.4-0.4V5.1h-0.5c-0.7,0-1.1,0.2-1.1,0.7l0,0.1c0,0.2,0.1,0.3,0.2,0.4
		S65.2,6.6,65.4,6.6z"/>
	<path class="st7" d="M71.7,6.1c0-0.2-0.1-0.3-0.3-0.4S71,5.5,70.6,5.4c-1.3-0.3-1.9-0.8-1.9-1.6c0-0.5,0.2-0.9,0.6-1.2
		s0.9-0.5,1.5-0.5c0.7,0,1.2,0.2,1.6,0.5s0.6,0.7,0.6,1.2h-1.4c0-0.2-0.1-0.4-0.2-0.5s-0.3-0.2-0.6-0.2c-0.2,0-0.4,0.1-0.6,0.2
		s-0.2,0.2-0.2,0.4c0,0.2,0.1,0.3,0.2,0.4s0.4,0.2,0.7,0.2s0.6,0.1,0.9,0.2c0.7,0.3,1.1,0.7,1.1,1.4c0,0.5-0.2,0.9-0.6,1.2
		s-0.9,0.4-1.6,0.4c-0.4,0-0.8-0.1-1.2-0.2S69.1,7,68.9,6.8s-0.3-0.6-0.3-0.9h1.3c0,0.3,0.1,0.4,0.3,0.6s0.4,0.2,0.7,0.2
		c0.3,0,0.5-0.1,0.6-0.2S71.7,6.2,71.7,6.1z"/>
	<path class="st7" d="M76.4,7.6c-0.8,0-1.4-0.2-1.9-0.7S73.8,5.8,73.8,5V4.9c0-0.5,0.1-1,0.3-1.4s0.5-0.7,0.9-1s0.8-0.3,1.3-0.3
		c0.7,0,1.3,0.2,1.7,0.7s0.6,1.1,0.6,1.9v0.6h-3.4c0,0.3,0.2,0.6,0.4,0.8s0.5,0.3,0.9,0.3c0.5,0,1-0.2,1.3-0.6l0.7,0.8
		C78.3,7,78,7.2,77.6,7.4S76.9,7.6,76.4,7.6z M76.3,3.3c-0.3,0-0.5,0.1-0.7,0.3c-0.2,0.2-0.3,0.5-0.3,0.8h2V4.3
		c0-0.3-0.1-0.6-0.3-0.7C76.8,3.4,76.6,3.3,76.3,3.3z"/>
	<path class="st7" d="M86.7,7.5h-4.9v-1l2.3-2.5c0.3-0.3,0.5-0.6,0.7-0.9s0.2-0.5,0.2-0.7c0-0.3-0.1-0.6-0.2-0.7s-0.4-0.3-0.7-0.3
		c-0.3,0-0.6,0.1-0.8,0.3s-0.3,0.5-0.3,0.9h-1.4c0-0.4,0.1-0.8,0.3-1.2s0.5-0.6,0.9-0.8s0.8-0.3,1.3-0.3c0.7,0,1.3,0.2,1.7,0.5
		s0.6,0.8,0.6,1.5c0,0.4-0.1,0.7-0.3,1.1s-0.5,0.8-0.9,1.3l-1.6,1.7h3.1V7.5z"/>
</g>
<g>
	<path class="st8" d="M390.7,5v2.5h-1.5V0.4h2.8c0.5,0,1,0.1,1.4,0.3s0.7,0.5,0.9,0.8s0.3,0.8,0.3,1.2c0,0.7-0.2,1.2-0.7,1.6
		S392.8,5,392,5H390.7z M390.7,3.8h1.3c0.4,0,0.7-0.1,0.9-0.3s0.3-0.4,0.3-0.8c0-0.3-0.1-0.6-0.3-0.8s-0.5-0.3-0.8-0.3h-1.3V3.8z"/>
	<path class="st8" d="M396.9,2.8c0.4-0.4,0.8-0.7,1.4-0.7c1.1,0,1.7,0.7,1.7,2v3.4h-1.4V4.2c0-0.3-0.1-0.5-0.2-0.7s-0.3-0.2-0.6-0.2
		c-0.4,0-0.7,0.2-0.9,0.5v3.8h-1.4V0h1.4V2.8z"/>
	<path class="st8" d="M404.2,7.5c-0.1-0.1-0.1-0.3-0.1-0.5c-0.3,0.4-0.8,0.6-1.3,0.6c-0.5,0-0.9-0.1-1.3-0.4S401,6.5,401,6
		c0-0.6,0.2-1,0.6-1.3s1-0.5,1.8-0.5h0.6V4c0-0.2-0.1-0.4-0.2-0.6s-0.3-0.2-0.6-0.2c-0.2,0-0.4,0.1-0.6,0.2s-0.2,0.3-0.2,0.5h-1.4
		c0-0.3,0.1-0.6,0.3-0.8s0.5-0.5,0.8-0.6s0.7-0.2,1.2-0.2c0.7,0,1.2,0.2,1.6,0.5s0.6,0.8,0.6,1.4v2.3c0,0.5,0.1,0.9,0.2,1.1v0.1
		H404.2z M403.1,6.5c0.2,0,0.4,0,0.6-0.1s0.3-0.2,0.4-0.4V5.1h-0.5c-0.7,0-1.1,0.2-1.1,0.7l0,0.1c0,0.2,0.1,0.3,0.2,0.4
		S402.8,6.5,403.1,6.5z"/>
	<path class="st8" d="M409.4,6c0-0.2-0.1-0.3-0.3-0.4s-0.4-0.2-0.8-0.3c-1.3-0.3-1.9-0.8-1.9-1.6c0-0.5,0.2-0.9,0.6-1.2
		s0.9-0.5,1.5-0.5c0.7,0,1.2,0.2,1.6,0.5s0.6,0.7,0.6,1.2h-1.4c0-0.2-0.1-0.4-0.2-0.5s-0.3-0.2-0.6-0.2c-0.2,0-0.4,0.1-0.6,0.2
		s-0.2,0.2-0.2,0.4c0,0.2,0.1,0.3,0.2,0.4s0.4,0.2,0.7,0.2s0.6,0.1,0.9,0.2c0.7,0.3,1.1,0.7,1.1,1.4c0,0.5-0.2,0.9-0.6,1.2
		s-0.9,0.4-1.6,0.4c-0.4,0-0.8-0.1-1.2-0.2s-0.6-0.4-0.8-0.6s-0.3-0.6-0.3-0.9h1.3c0,0.3,0.1,0.4,0.3,0.6s0.4,0.2,0.7,0.2
		c0.3,0,0.5-0.1,0.6-0.2S409.4,6.2,409.4,6z"/>
	<path class="st8" d="M414.1,7.6c-0.8,0-1.4-0.2-1.9-0.7s-0.7-1.1-0.7-1.9V4.8c0-0.5,0.1-1,0.3-1.4s0.5-0.7,0.9-1s0.8-0.3,1.3-0.3
		c0.7,0,1.3,0.2,1.7,0.7s0.6,1.1,0.6,1.9v0.6h-3.4c0,0.3,0.2,0.6,0.4,0.8s0.5,0.3,0.9,0.3c0.5,0,1-0.2,1.3-0.6l0.7,0.8
		c-0.2,0.3-0.5,0.5-0.9,0.7S414.5,7.6,414.1,7.6z M413.9,3.3c-0.3,0-0.5,0.1-0.7,0.3c-0.2,0.2-0.3,0.5-0.3,0.8h2V4.2
		c0-0.3-0.1-0.6-0.3-0.7C414.5,3.3,414.2,3.3,413.9,3.3z"/>
	<path class="st8" d="M420.9,3.3h0.8c0.4,0,0.6-0.1,0.8-0.3s0.3-0.4,0.3-0.7c0-0.3-0.1-0.5-0.3-0.7s-0.4-0.2-0.7-0.2
		c-0.3,0-0.5,0.1-0.7,0.2s-0.3,0.3-0.3,0.6h-1.4c0-0.4,0.1-0.7,0.3-1s0.5-0.5,0.8-0.7s0.8-0.2,1.2-0.2c0.8,0,1.3,0.2,1.8,0.5
		s0.6,0.9,0.6,1.5c0,0.3-0.1,0.6-0.3,0.9s-0.5,0.5-0.8,0.6c0.4,0.1,0.7,0.4,0.9,0.6s0.3,0.6,0.3,1c0,0.6-0.2,1.1-0.7,1.5
		s-1.1,0.6-1.8,0.6c-0.7,0-1.3-0.2-1.7-0.6s-0.7-0.9-0.7-1.5h1.4c0,0.3,0.1,0.5,0.3,0.7s0.4,0.3,0.7,0.3c0.3,0,0.6-0.1,0.8-0.3
		s0.3-0.4,0.3-0.7c0-0.7-0.4-1.1-1.2-1.1h-0.7V3.3z"/>
</g>
<rect x="388.3" y="10.3" class="st8" width="1" height="22.1"/>
<rect x="50.4" y="10.3" class="st7" width="1" height="22.1"/>
</svg>
